<svg xmlns="http://www.w3.org/2000/svg" xmlns:xlink="http://www.w3.org/1999/xlink" width="232.736" height="138.648" viewBox="0 0 232.736 138.648"><defs><linearGradient id="a" y1="0.5" x2="1" y2="0.5" gradientUnits="objectBoundingBox"><stop offset="0" stop-color="#f3be5b"/><stop offset="0.238" stop-color="#ecb059"/><stop offset="0.553" stop-color="#e7a457"/><stop offset="0.889" stop-color="#e6a157"/></linearGradient><linearGradient id="b" y1="0.5" x2="1" y2="0.5" gradientUnits="objectBoundingBox"><stop offset="0.112" stop-color="#945300" stop-opacity="0"/><stop offset="0.18" stop-color="#8b4c01" stop-opacity="0.094"/><stop offset="0.717" stop-color="#4f200f" stop-opacity="0.749"/><stop offset="1" stop-color="#391015"/></linearGradient><linearGradient id="c" x1="0.02" y1="-0.051" x2="0.802" y2="0.902" gradientUnits="objectBoundingBox"><stop offset="0.278" stop-color="#945300" stop-opacity="0"/><stop offset="0.315" stop-color="#8b4c01" stop-opacity="0.094"/><stop offset="0.606" stop-color="#4f200f" stop-opacity="0.749"/><stop offset="0.76" stop-color="#391015"/></linearGradient><linearGradient id="d" x1="0.638" y1="2.017" x2="0.395" y2="-0.647" gradientUnits="objectBoundingBox"><stop offset="0.507" stop-color="#945300" stop-opacity="0"/><stop offset="0.525" stop-color="#8b4c01" stop-opacity="0.094"/><stop offset="0.669" stop-color="#4f200f" stop-opacity="0.749"/><stop offset="0.745" stop-color="#391015"/></linearGradient><linearGradient id="e" x1="-0.05" y1="1.322" x2="0.844" y2="-0.003" gradientUnits="objectBoundingBox"><stop offset="0.362" stop-color="#945300" stop-opacity="0"/><stop offset="0.389" stop-color="#8b4c01" stop-opacity="0.094"/><stop offset="0.602" stop-color="#4f200f" stop-opacity="0.749"/><stop offset="0.714" stop-color="#391015"/></linearGradient><linearGradient id="f" x1="-0.339" y1="0.866" x2="0.99" y2="0.28" xlink:href="#c"/><linearGradient id="g" y1="0.5" x2="1" y2="0.5" gradientUnits="objectBoundingBox"><stop offset="0.371" stop-color="#945300" stop-opacity="0"/><stop offset="0.397" stop-color="#8b4c01" stop-opacity="0.094"/><stop offset="0.596" stop-color="#4f200f" stop-opacity="0.749"/><stop offset="0.702" stop-color="#391015"/></linearGradient><linearGradient id="h" x1="0" y1="0.5" x2="1" y2="0.5" xlink:href="#g"/><linearGradient id="i" x1="0" y1="0.5" x2="1" y2="0.5" xlink:href="#g"/><linearGradient id="j" x1="0.01" y1="0.505" x2="0.991" y2="0.505" xlink:href="#g"/><linearGradient id="k" x1="0.882" y1="0.921" x2="0.194" y2="0.113" gradientUnits="objectBoundingBox"><stop offset="0.183" stop-color="#945300" stop-opacity="0"/><stop offset="0.235" stop-color="#8b4c01" stop-opacity="0.094"/><stop offset="0.64" stop-color="#4f200f" stop-opacity="0.749"/><stop offset="0.853" stop-color="#391015"/></linearGradient><linearGradient id="m" y1="0.5" x2="1" y2="0.5" gradientUnits="objectBoundingBox"><stop offset="0" stop-color="#945300" stop-opacity="0"/><stop offset="0.319" stop-color="#945300" stop-opacity="0.388"/><stop offset="0.631" stop-color="#945300" stop-opacity="0.718"/><stop offset="0.867" stop-color="#945300" stop-opacity="0.922"/><stop offset="1" stop-color="#945300"/></linearGradient><linearGradient id="p" x1="-2.134" y1="0.945" x2="4.344" y2="-0.149" gradientUnits="objectBoundingBox"><stop offset="0.294" stop-color="#945300" stop-opacity="0"/><stop offset="0.481" stop-color="#945300" stop-opacity="0.251"/><stop offset="0.698" stop-color="#945300" stop-opacity="0.502"/><stop offset="0.813" stop-color="#945300" stop-opacity="0.6"/></linearGradient><linearGradient id="q" x1="-0.631" y1="3.737" x2="2.189" y2="-4.334" xlink:href="#p"/><linearGradient id="r" x1="0.285" y1="0.237" x2="0.731" y2="0.783" gradientUnits="objectBoundingBox"><stop offset="0.148" stop-color="#e7a953" stop-opacity="0"/><stop offset="0.512" stop-color="#f3be5b"/><stop offset="0.81" stop-color="#f0b859" stop-opacity="0"/></linearGradient><linearGradient id="s" x1="-1.141" y1="1.159" x2="2.014" y2="-0.108" gradientUnits="objectBoundingBox"><stop offset="0.294" stop-color="#945300" stop-opacity="0"/><stop offset="0.316" stop-color="#945300" stop-opacity="0.039"/><stop offset="0.55" stop-color="#945300" stop-opacity="0.447"/><stop offset="0.723" stop-color="#945300" stop-opacity="0.702"/><stop offset="0.813" stop-color="#945300" stop-opacity="0.8"/></linearGradient><linearGradient id="t" x1="1.175" y1="-0.149" x2="-0.173" y2="1.147" xlink:href="#p"/><linearGradient id="u" x1="-0.891" y1="2.079" x2="1.754" y2="-0.923" xlink:href="#p"/><linearGradient id="v" x1="-0.82" y1="1.803" x2="2.22" y2="-1.198" xlink:href="#p"/><linearGradient id="aa" y1="0.5" x2="1" y2="0.5" gradientUnits="objectBoundingBox"><stop offset="0" stop-color="#945300" stop-opacity="0"/><stop offset="0.19" stop-color="#945300" stop-opacity="0.698"/><stop offset="0.282" stop-color="#945300"/></linearGradient><linearGradient id="ad" y1="0.5" x2="1" y2="0.5" gradientUnits="objectBoundingBox"><stop offset="0" stop-color="#945300" stop-opacity="0"/><stop offset="0.08" stop-color="#945300" stop-opacity="0.624"/><stop offset="0.133" stop-color="#945300"/></linearGradient><linearGradient id="ak" x1="-0.083" y1="0.496" x2="1.095" y2="0.504" gradientUnits="objectBoundingBox"><stop offset="0.112" stop-color="#945300" stop-opacity="0"/><stop offset="0.255" stop-color="#945300" stop-opacity="0.239"/><stop offset="0.518" stop-color="#945300" stop-opacity="0.647"/><stop offset="0.711" stop-color="#945300" stop-opacity="0.902"/><stop offset="0.813" stop-color="#945300"/></linearGradient><linearGradient id="al" x1="-0.447" y1="1.806" x2="2.409" y2="-2.132" gradientUnits="objectBoundingBox"><stop offset="0.21" stop-color="#945300" stop-opacity="0"/><stop offset="0.307" stop-color="#945300" stop-opacity="0.239"/><stop offset="0.487" stop-color="#945300" stop-opacity="0.647"/><stop offset="0.619" stop-color="#945300" stop-opacity="0.902"/><stop offset="0.689" stop-color="#945300"/></linearGradient><linearGradient id="as" x1="0.058" y1="0.933" x2="1.526" y2="-0.504" xlink:href="#a"/><linearGradient id="at" x1="-0.175" y1="-0.257" x2="1.313" y2="1.411" gradientUnits="objectBoundingBox"><stop offset="0.258" stop-color="#945300" stop-opacity="0"/><stop offset="0.329" stop-color="#945300" stop-opacity="0.239"/><stop offset="0.46" stop-color="#945300" stop-opacity="0.647"/><stop offset="0.556" stop-color="#945300" stop-opacity="0.902"/><stop offset="0.607" stop-color="#945300"/></linearGradient><linearGradient id="aw" y1="0.5" x2="1" y2="0.5" gradientUnits="objectBoundingBox"><stop offset="0" stop-color="#945300" stop-opacity="0"/><stop offset="0.172" stop-color="#945300" stop-opacity="0.239"/><stop offset="0.489" stop-color="#945300" stop-opacity="0.647"/><stop offset="0.723" stop-color="#945300" stop-opacity="0.902"/><stop offset="0.846" stop-color="#945300"/></linearGradient><linearGradient id="az" x1="-0.82" y1="1.788" x2="3.103" y2="-2.04" gradientUnits="objectBoundingBox"><stop offset="0.245" stop-color="#945300" stop-opacity="0"/><stop offset="0.335" stop-color="#945300" stop-opacity="0.239"/><stop offset="0.502" stop-color="#945300" stop-opacity="0.647"/><stop offset="0.624" stop-color="#945300" stop-opacity="0.902"/><stop offset="0.689" stop-color="#945300"/></linearGradient><linearGradient id="ba" x1="-1.785" y1="2.677" x2="2.233" y2="-1.151" gradientUnits="objectBoundingBox"><stop offset="0.432" stop-color="#945300" stop-opacity="0"/><stop offset="0.487" stop-color="#945300" stop-opacity="0.239"/><stop offset="0.59" stop-color="#945300" stop-opacity="0.647"/><stop offset="0.666" stop-color="#945300" stop-opacity="0.902"/><stop offset="0.705" stop-color="#945300"/></linearGradient><linearGradient id="bc" x1="-0.073" y1="0.375" x2="1.4" y2="0.991" gradientUnits="objectBoundingBox"><stop offset="0.527" stop-color="#945300" stop-opacity="0"/><stop offset="0.611" stop-color="#945300" stop-opacity="0.239"/><stop offset="0.766" stop-color="#945300" stop-opacity="0.647"/><stop offset="0.88" stop-color="#945300" stop-opacity="0.902"/><stop offset="0.94" stop-color="#945300"/></linearGradient><linearGradient id="be" x1="-0.288" y1="0.5" x2="0.826" y2="0.5" gradientUnits="objectBoundingBox"><stop offset="0.262" stop-color="#f3d65b"/><stop offset="0.315" stop-color="#efd157" stop-opacity="0.992"/><stop offset="0.379" stop-color="#e6c44f" stop-opacity="0.973"/><stop offset="0.448" stop-color="#d7af40" stop-opacity="0.941"/><stop offset="0.521" stop-color="#c2902b" stop-opacity="0.894"/><stop offset="0.596" stop-color="#a76a11" stop-opacity="0.835"/><stop offset="0.636" stop-color="#975402" stop-opacity="0.8"/></linearGradient><linearGradient id="bg" y1="0.5" x2="1" y2="0.5" gradientUnits="objectBoundingBox"><stop offset="0" stop-color="#945300" stop-opacity="0"/><stop offset="0.191" stop-color="#945300" stop-opacity="0.239"/><stop offset="0.544" stop-color="#945300" stop-opacity="0.647"/><stop offset="0.803" stop-color="#945300" stop-opacity="0.902"/><stop offset="0.94" stop-color="#945300"/></linearGradient><linearGradient id="bj" y1="0.5" x2="1" y2="0.5" gradientUnits="objectBoundingBox"><stop offset="0.12" stop-color="#f3d65b"/><stop offset="0.172" stop-color="#efd157" stop-opacity="0.992"/><stop offset="0.233" stop-color="#e6c44f" stop-opacity="0.973"/><stop offset="0.301" stop-color="#d7af40" stop-opacity="0.941"/><stop offset="0.372" stop-color="#c2902b" stop-opacity="0.894"/><stop offset="0.445" stop-color="#a76a11" stop-opacity="0.835"/><stop offset="0.483" stop-color="#975402" stop-opacity="0.8"/></linearGradient><linearGradient id="bl" y1="0.5" x2="1" y2="0.5" gradientUnits="objectBoundingBox"><stop offset="0" stop-color="#f3d65b"/><stop offset="0.169" stop-color="#eec259"/><stop offset="0.399" stop-color="#e9b058"/><stop offset="0.636" stop-color="#e6a457"/><stop offset="0.889" stop-color="#e6a157"/></linearGradient><linearGradient id="bm" x1="0.036" y1="-0.276" x2="1.093" y2="1.069" gradientUnits="objectBoundingBox"><stop offset="0.475" stop-color="#945300" stop-opacity="0"/><stop offset="0.544" stop-color="#945300" stop-opacity="0.239"/><stop offset="0.672" stop-color="#945300" stop-opacity="0.647"/><stop offset="0.766" stop-color="#945300" stop-opacity="0.902"/><stop offset="0.815" stop-color="#945300"/></linearGradient><linearGradient id="bq" x1="-0.069" y1="1.535" x2="1.231" y2="-0.83" gradientUnits="objectBoundingBox"><stop offset="0.126" stop-color="#945300" stop-opacity="0"/><stop offset="0.292" stop-color="#945300" stop-opacity="0.239"/><stop offset="0.597" stop-color="#945300" stop-opacity="0.647"/><stop offset="0.821" stop-color="#945300" stop-opacity="0.902"/><stop offset="0.94" stop-color="#945300"/></linearGradient><linearGradient id="bs" x1="-0.715" y1="1.113" x2="6.177" y2="-2.366" xlink:href="#bl"/><linearGradient id="bu" x1="-0.015" y1="1.413" x2="1.691" y2="-1.61" xlink:href="#bq"/><linearGradient id="by" x1="-2.053" y1="1.44" x2="5.524" y2="-1.349" gradientUnits="objectBoundingBox"><stop offset="0.223" stop-color="#945300" stop-opacity="0"/><stop offset="0.315" stop-color="#945300" stop-opacity="0.239"/><stop offset="0.485" stop-color="#945300" stop-opacity="0.647"/><stop offset="0.611" stop-color="#945300" stop-opacity="0.902"/><stop offset="0.677" stop-color="#945300"/></linearGradient><linearGradient id="cd" x1="-1.909" y1="0.954" x2="2.034" y2="0.211" gradientUnits="objectBoundingBox"><stop offset="0.154" stop-color="#945300" stop-opacity="0"/><stop offset="0.314" stop-color="#945300" stop-opacity="0.239"/><stop offset="0.608" stop-color="#945300" stop-opacity="0.647"/><stop offset="0.825" stop-color="#945300" stop-opacity="0.902"/><stop offset="0.94" stop-color="#945300"/></linearGradient><linearGradient id="ce" x1="-0.121" y1="1.505" x2="2.356" y2="-2.504" xlink:href="#bq"/><linearGradient id="cg" x1="-1.599" y1="1.56" x2="5.293" y2="-1.92" xlink:href="#bl"/><linearGradient id="ci" x1="-0.576" y1="0.921" x2="1.042" y2="0.265" xlink:href="#cd"/><linearGradient id="ck" x1="-1.08" y1="1.316" x2="2.96" y2="-0.771" gradientUnits="objectBoundingBox"><stop offset="0.194" stop-color="#945300" stop-opacity="0"/><stop offset="0.346" stop-color="#945300" stop-opacity="0.239"/><stop offset="0.625" stop-color="#945300" stop-opacity="0.647"/><stop offset="0.831" stop-color="#945300" stop-opacity="0.902"/><stop offset="0.94" stop-color="#945300"/></linearGradient><linearGradient id="cn" x1="-0.878" y1="1.465" x2="1.347" y2="-0.093" xlink:href="#bg"/><linearGradient id="co" x1="-2.834" y1="1.133" x2="5.348" y2="-0.421" xlink:href="#cd"/><linearGradient id="cq" x1="-3.857" y1="1.914" x2="6.865" y2="-1.566" xlink:href="#a"/><linearGradient id="cr" x1="-0.153" y1="0.709" x2="2.354" y2="-0.092" xlink:href="#a"/><linearGradient id="cs" x1="-0.198" y1="3.116" x2="0.942" y2="-1.158" xlink:href="#cd"/><linearGradient id="ct" x1="-0.499" y1="0.819" x2="2.008" y2="0.018" gradientUnits="objectBoundingBox"><stop offset="0.047" stop-color="#945300" stop-opacity="0"/><stop offset="0.168" stop-color="#945300" stop-opacity="0.239"/><stop offset="0.391" stop-color="#945300" stop-opacity="0.647"/><stop offset="0.556" stop-color="#945300" stop-opacity="0.902"/><stop offset="0.642" stop-color="#945300"/></linearGradient><linearGradient id="cx" x1="-0.057" y1="0.357" x2="1.169" y2="0.97" xlink:href="#bc"/><linearGradient id="dc" x1="-0.11" y1="-0.062" x2="0.806" y2="0.691" gradientUnits="objectBoundingBox"><stop offset="0.652" stop-color="#945300" stop-opacity="0"/><stop offset="0.723" stop-color="#945300" stop-opacity="0.239"/><stop offset="0.853" stop-color="#945300" stop-opacity="0.647"/><stop offset="0.949" stop-color="#945300" stop-opacity="0.902"/><stop offset="1" stop-color="#945300"/></linearGradient><linearGradient id="dd" x1="0.133" y1="0.124" x2="0.736" y2="0.773" gradientUnits="objectBoundingBox"><stop offset="0.291" stop-color="#e7a953" stop-opacity="0"/><stop offset="0.584" stop-color="#d39141" stop-opacity="0.6"/><stop offset="0.671" stop-color="#d39141" stop-opacity="0"/></linearGradient></defs><g transform="translate(-776.727 -430.661)"><path d="M790.113,606.752l22.438-15.811-17.492,9.8Z" transform="translate(-4.902 -58.695)" fill="#666062"/><g transform="translate(793.579 504.218)"><g transform="translate(0)"><path d="M852.943,547.126l16.152,7.306s8.28,20.524,8.935,20.97l-3.457,27.264h-21.63Z" transform="translate(-821.49 -546.868)" fill="#d9d3c4"/><g transform="translate(37.464 2.502)"><path d="M878.541,607.331c.389-3.25.82-6.5,1.2-9.746.692-5.883,1.153-11.809,1.479-17.727.05.185.1.37.148.553-.244,5.736-.536,11.458-1.2,17.17-.374,3.252-.807,6.5-1.2,9.746-.29,2.4-.463,4.795-.653,7.2l-.5-.021C877.929,612.1,878.257,609.693,878.541,607.331Z" transform="translate(-868.063 -561.356)" fill="#d9d3c4"/><path d="M874.3,557.644c-.17,4.709-.818,9.393-1.1,14.1-.352,5.83-.5,11.686-1.074,17.5-.02.191-.3.2-.3,0-.01-2.879.312-5.77.52-8.641.214-2.952.307-5.909.485-8.863.294-4.9,1-9.767,1.249-14.667C874.142,557.243,874.217,557.43,874.3,557.644Z" transform="translate(-865.867 -553.015)" fill="#d9d3c4"/><path d="M863.526,565.922q-.173,5.944-.35,11.886c-.1,3.581-.048,7.216-.363,10.785a.179.179,0,0,1-.358,0c-.116-3.58.156-7.2.27-10.784q.188-5.945.413-11.888.294-7.63.644-15.26c.076.033.152.065.229.1C863.824,555.818,863.673,560.87,863.526,565.922Z" transform="translate(-862.427 -550.666)" fill="#d9d3c4"/></g><path d="M838.448,547.126l-16.153,7.306s-8.28,20.524-8.935,20.97l3.457,27.264h21.63Z" transform="translate(-806.994 -546.868)" fill="#d9d3c4"/><g transform="translate(12.137 0.069)"><path d="M825.292,607.331c-.389-3.25-.82-6.5-1.2-9.746-.692-5.883-1.153-11.809-1.479-17.727l-.147.553c.243,5.736.535,11.458,1.2,17.17.375,3.252.808,6.5,1.2,9.746.29,2.4.464,4.795.653,7.2l.5-.021C825.905,612.1,825.576,609.693,825.292,607.331Z" transform="translate(-822.465 -558.924)" fill="#d9d3c4"/><path d="M830.148,557.644c.17,4.709.818,9.393,1.1,14.1.352,5.83.5,11.686,1.073,17.5.02.191.3.2.3,0,.01-2.879-.312-5.77-.52-8.641-.214-2.952-.308-5.909-.485-8.863-.294-4.9-1-9.767-1.249-14.667C830.309,557.243,830.235,557.43,830.148,557.644Z" transform="translate(-825.279 -550.582)" fill="#d9d3c4"/><path d="M841.443,565.922q.174,5.944.35,11.886c.1,3.581.048,7.216.363,10.785a.179.179,0,0,0,.358,0c.116-3.58-.156-7.2-.27-10.784q-.188-5.945-.413-11.888-.293-7.63-.643-15.26c-.076.033-.153.065-.23.1C841.145,555.818,841.3,560.87,841.443,565.922Z" transform="translate(-829.238 -548.234)" fill="#d9d3c4"/><path d="M852.929,564.655q.017,5.026-.01,10.053c-.017,3.248-.188,6.54.01,9.784a.131.131,0,0,0,.262,0c.208-3.147.064-6.345.055-9.5q-.015-5.024-.037-10.049c-.034-6.043-.121-12.082-.3-18.12l-.179.061C852.861,552.811,852.91,558.734,852.929,564.655Z" transform="translate(-833.548 -546.828)" fill="#d9d3c4"/></g><path d="M844.844,562.327l.083,14.692h10.485V562.442Z" transform="translate(-818.524 -552.435)" fill="#d9d3c4"/><path d="M831.567,617.158l-1.752-19.916H843.78v19.916Z" transform="translate(-813.02 -565.221)" fill="#d9d3c4"/><path d="M833.705,612.634c-.229-1.7-.49-3.4-.73-5.1a35.915,35.915,0,0,0-2.266-9.591.349.349,0,0,0-.649.169c.238,3.195.759,6.4,1.194,9.582.219,1.611.43,3.222.671,4.83a47.542,47.542,0,0,0,.79,5.113.8.8,0,0,0,1.573-.195A35.131,35.131,0,0,0,833.705,612.634Z" transform="translate(-813.109 -565.413)" fill="#d9d3c4" opacity="0.3" style="mix-blend-mode:multiply;isolation:isolate"/><path d="M829.077,596.807a1.149,1.149,0,0,1,1.29-.707.346.346,0,0,1,.035-.015c.08-.027.16-.05.243-.075a.252.252,0,0,0,.023.028c.491-.081.982-.174,1.467-.245.631-.1,1.259-.167,1.887-.217.976-.013,1.955.03,2.9.039,2.093.016,4.186.023,6.278-.018.088,0,.177-.006.266-.008-.015.416,0,.832.02,1.247-.4.013-.8.026-1.194.041-2.5.087-5,.254-7.507.333-.93.028-1.9.195-2.857.279,2.307,2.663,4.572,5.351,6.7,8.169,1.266,1.675,2.441,3.409,3.615,5.148.574.849.765,1.033,1.278,1.92.319.555.136,2.722-.364,2.778a17.992,17.992,0,0,1-1.008-1.751c-.545-.871-1.131-1.715-1.7-2.574-1.1-1.674-2.269-3.306-3.464-4.918-2.18-2.939-4.431-5.822-6.625-8.75a4.959,4.959,0,0,1-1.405-.311C828.991,597.068,829.03,596.937,829.077,596.807Z" transform="translate(-812.705 -564.609)" fill="#d9d3c4" opacity="0.3" style="mix-blend-mode:multiply;isolation:isolate"/><path d="M830.526,617.043,828.693,596.2a.634.634,0,0,1,.631-.69h14.181a.634.634,0,0,1,.634.634v20.847a.634.634,0,0,1-.634.634H831.158A.634.634,0,0,1,830.526,617.043Z" transform="translate(-812.608 -564.585)" fill="#d9d3c4"/><line x1="13.692" y1="19.527" transform="translate(17.006 32.323)" fill="#d9d3c4"/><path d="M865.7,581.227a.634.634,0,0,1-.9.037l-3.988-3.667a7.242,7.242,0,0,1-1.949-2.986c-.666-1.95-2.037-5.82-3.73-9.825-1.207-2.852-2.455-5.5-3.289-7.216a8.649,8.649,0,0,0-4.062-4.013c-1.747-.83-3.4-1.563-4.92-2.18-3.465-1.406-7.128-2.507-8.095-2.79-.966.283-4.629,1.384-8.094,2.79-1.519.617-3.173,1.35-4.92,2.18a8.652,8.652,0,0,0-4.062,4.013c-.835,1.72-2.084,4.369-3.289,7.216-1.7,4.01-3.066,7.877-3.73,9.825a7.253,7.253,0,0,1-1.949,2.986l-3.989,3.667a.633.633,0,0,1-.895-.037l-.358-.389a.633.633,0,0,1,.037-.9l3.988-3.667a5.414,5.414,0,0,0,1.464-2.24c.672-1.97,2.058-5.884,3.777-9.948,1.219-2.883,2.483-5.562,3.327-7.3a10.456,10.456,0,0,1,4.907-4.851c1.777-.844,3.464-1.591,5.015-2.221,4.109-1.668,8.481-2.913,8.525-2.925l.245-.07.245.07c.044.012,4.416,1.257,8.526,2.925,1.55.629,3.236,1.376,5.015,2.221a10.458,10.458,0,0,1,4.907,4.851c.844,1.737,2.106,4.414,3.327,7.3,1.717,4.059,3.1,7.978,3.778,9.949a5.411,5.411,0,0,0,1.464,2.24l3.988,3.667a.634.634,0,0,1,.037.9Z" transform="translate(-803.316 -546.719)" fill="#d9d3c4"/><path d="M854.457,573.335c-.01.894.029,1.8-.009,2.7a5.125,5.125,0,0,1-.818.847c.14-1.225.134-4.661.11-6.8-.014-1.182.009-5.664-.094-6.007-4.133-.057-8.259.5-8.261.293a1.694,1.694,0,0,1,2.069-2.055c.652-.006,1.3-.018,1.955-.029a.749.749,0,0,1,.529.688h.022c1.287-.063,2.7-.588,3.968-.236.2.053.746.264.861.48.009.025.015.052.023.081-.086,2.169-.345,4.31-.335,6.482C854.48,570.968,854.47,572.152,854.457,573.335Z" transform="translate(-818.721 -552.421)" fill="#d9d3c4" opacity="0.3" style="mix-blend-mode:multiply;isolation:isolate"/><path d="M844.85,562.976l.076,13.417a.634.634,0,0,0,.634.63h9.221a.634.634,0,0,0,.634-.634V563.073a.634.634,0,0,0-.627-.634l-9.3-.1A.634.634,0,0,0,844.85,562.976Z" transform="translate(-818.526 -552.439)" fill="#d9d3c4"/><path d="M866.276,617.249l1.79-20.349H853.8v20.349Z" transform="translate(-821.802 -565.096)" fill="#d9d3c4"/><path d="M869.736,612.634c.229-1.7.49-3.4.73-5.1a35.91,35.91,0,0,1,2.266-9.591.349.349,0,0,1,.649.169c-.238,3.195-.759,6.4-1.194,9.582-.219,1.611-.43,3.222-.671,4.83a47.39,47.39,0,0,1-.79,5.113.8.8,0,0,1-1.573-.195A35.227,35.227,0,0,1,869.736,612.634Z" transform="translate(-827.426 -565.413)" fill="#d9d3c4" opacity="0.3" style="mix-blend-mode:multiply;isolation:isolate"/><path d="M868.3,596.807a1.149,1.149,0,0,0-1.29-.707.287.287,0,0,0-.035-.015c-.079-.027-.16-.05-.243-.075a.329.329,0,0,1-.022.028c-.492-.081-.982-.174-1.468-.245-.631-.1-1.259-.167-1.887-.217-.976-.013-1.955.03-2.9.039-2.093.016-4.186.023-6.278-.018-.089,0-.177-.006-.266-.008.015.416,0,.832-.02,1.247.4.013.8.026,1.195.041,2.5.087,5,.254,7.507.333.929.028,1.9.195,2.857.279-2.307,2.663-4.572,5.351-6.7,8.169-1.266,1.675-2.441,3.409-3.615,5.148-.574.849-.764,1.033-1.278,1.92-.319.555-.136,2.722.364,2.778a17.98,17.98,0,0,0,1.008-1.751c.545-.871,1.131-1.715,1.7-2.574,1.1-1.674,2.268-3.306,3.463-4.918,2.18-2.939,4.432-5.822,6.625-8.75a4.963,4.963,0,0,0,1.406-.311C868.388,597.068,868.349,596.937,868.3,596.807Z" transform="translate(-821.767 -564.609)" fill="#d9d3c4" opacity="0.3" style="mix-blend-mode:multiply;isolation:isolate"/><path d="M866.433,617.043l1.834-20.847a.633.633,0,0,0-.631-.69H853.454a.634.634,0,0,0-.634.634v20.847a.634.634,0,0,0,.634.634H865.8A.634.634,0,0,0,866.433,617.043Z" transform="translate(-821.444 -564.585)" fill="#d9d3c4"/><line y1="19.527" x2="13.692" transform="translate(32.208 32.323)" fill="#d9d3c4"/></g></g><path d="M849.6,443.329a34.7,34.7,0,0,0-3.7-3.685c-.688-.589-1.4-1.141-2.123-1.673q-.755-.554-1.532-1.068A37.955,37.955,0,0,0,836.5,433.8q-.628-.274-1.263-.524-.977-.384-1.963-.712a36.232,36.232,0,0,0-11.328-1.9H795.629a2.018,2.018,0,0,0-.8.1c-.832.442-9.759,9.346-9.759,9.346.066-.1.331-.152.868-.152h26.314c15.969,0,35.931,11.977,35.931,35.932,0,17.607-12.94,28.735-24.554,33.4l.008,0c13.89-5.524,34.241-18.744,34.241-42.7h0A34.768,34.768,0,0,0,849.6,443.329Z" transform="translate(-3.054)" fill="url(#a)"/><path d="M871.626,628.3,881.415,619l3.457-27.264-9.788,9.294Z" transform="translate(-34.753 -58.988)" fill="#d8662e"/><path d="M871.626,628.3,881.415,619l3.457-27.264-9.788,9.294Z" transform="translate(-34.753 -58.988)" opacity="0.56" fill="url(#b)"/><path d="M837.5,561.79l16.152,7.305s8.28,20.524,8.935,20.97l-3.457,27.264H837.5Z" transform="translate(-22.255 -48.02)" fill="#e07032"/><g transform="translate(820.733 516.013)"><path d="M863.1,621.995c.389-3.251.82-6.5,1.2-9.746.692-5.883,1.153-11.81,1.479-17.727.05.185.1.37.148.553-.244,5.736-.536,11.458-1.2,17.17-.374,3.252-.807,6.5-1.2,9.746-.29,2.4-.473,4.924-.662,7.325h-.493C862.484,626.917,862.813,624.356,863.1,621.995Z" transform="translate(-852.097 -576.02)" fill="#9b3724"/><path d="M858.393,572.307c-.17,4.709-.818,9.393-1.1,14.1-.352,5.83-1.3,28.75-1.879,34.568h-.3c-.01-2.879,1.117-22.831,1.325-25.7.214-2.952.307-5.909.485-8.862.294-4.9,1-9.767,1.25-14.667C858.232,571.906,858.307,572.094,858.393,572.307Z" transform="translate(-849.436 -567.679)" fill="#9b3724"/><path d="M847.781,580.585q-.173,5.945-.351,11.886c-.1,3.581-.586,22.581-.9,26.15l-.358,0c-.116-3.58.7-22.569.809-26.148q.188-5.945.413-11.887.294-7.631.644-15.26c.076.032.152.065.229.1C848.079,570.482,847.928,575.534,847.781,580.585Z" transform="translate(-846.159 -565.33)" fill="#9b3724"/></g><path d="M823,561.79,806.851,569.1s-8.28,20.524-8.935,20.97l3.457,27.264H823Z" transform="translate(-7.759 -48.02)" fill="#e07032"/><g transform="translate(795.927 513.581)"><path d="M809.848,621.995c-.389-3.251-.82-6.5-1.2-9.746-.692-5.883-1.153-11.81-1.479-17.727l-.147.553c.243,5.736.535,11.458,1.2,17.17.375,3.252.808,6.5,1.2,9.746.29,2.4.464,4.924.653,7.325l.5-.021C810.461,626.9,810.132,624.356,809.848,621.995Z" transform="translate(-807.021 -573.587)" fill="#9b3724"/><path d="M814.705,572.307c.17,4.709.818,9.393,1.1,14.1.352,5.83,1.689,28.746,2.265,34.565l.3,0c.01-2.879-1.5-22.831-1.712-25.7-.214-2.952-.308-5.909-.485-8.862-.294-4.9-1-9.767-1.249-14.667C814.865,571.906,814.791,572.094,814.705,572.307Z" transform="translate(-809.835 -565.246)" fill="#9b3724"/><path d="M826,580.585q.173,5.945.35,11.886c.1,3.581.047,22.581.364,26.15l.357,0c.116-3.58-.156-22.569-.27-26.148q-.188-5.945-.413-11.887-.293-7.631-.643-15.26c-.076.032-.153.065-.229.1C825.7,570.482,825.853,575.534,826,580.585Z" transform="translate(-813.794 -562.898)" fill="#9b3724"/><path d="M837.421,579.319c.011,3.351-.26,6.7-.279,10.053-.017,3.249-.1,24.6.1,27.845l.262,0c.209-3.147.064-24.407.055-27.559-.01-3.35.162-6.7.143-10.049-.034-6.042-.121-12.082-.3-18.119l-.179.061C837.354,567.474,837.4,573.4,837.421,579.319Z" transform="translate(-818.04 -561.492)" fill="#9b3724"/></g><path d="M830.425,578.414,830.5,591.3h9.2V578.515Z" transform="translate(-19.664 -54.108)" fill="#d8662e"/><path d="M816.123,631.821l-1.752-19.916h13.965v19.916Z" transform="translate(-13.785 -66.373)" fill="#d8662e"/><path d="M835.6,611.335c-2.765-.122-5.562-.039-8.343.023-.062-.236-.12-.473-.192-.706a.349.349,0,0,0-.664.091c-.01.21-.009.423-.016.634l-.442.01c-1.625.027-3.25.045-4.875.094a47.331,47.331,0,0,0-5.171.179.8.8,0,0,0,.007,1.584,35.137,35.137,0,0,0,4.84-.009c1.718-.026,3.436-.084,5.153-.121l.444-.01c-.02,2.429.067,4.872.11,7.295.026,1.625.044,3.25.094,4.875a47.538,47.538,0,0,0,.179,5.171.8.8,0,0,0,1.585-.008,35.235,35.235,0,0,0-.01-4.839c-.026-1.719-.083-3.436-.12-5.153a48.478,48.478,0,0,0-.538-7.375A30.413,30.413,0,0,0,835.695,612,.35.35,0,0,0,835.6,611.335Z" transform="translate(-14.102 -65.837)" fill="#9b8a8e" opacity="0.3" style="mix-blend-mode:multiply;isolation:isolate"/><path d="M824.748,629.016c-.982-1.411-1.989-2.8-2.979-4.207a35.882,35.882,0,0,0-6.393-7.5c-.267-.215-.678.157-.5.446,1.67,2.735,3.6,5.35,5.435,7.981.93,1.333,1.853,2.671,2.8,3.992a47.473,47.473,0,0,0,3.036,4.189.8.8,0,0,0,1.311-.891A35.122,35.122,0,0,0,824.748,629.016Z" transform="translate(-13.954 -68.328)" fill="#9b8a8e" opacity="0.3" style="mix-blend-mode:multiply;isolation:isolate"/><path d="M838.909,588.566c-.01.893-.061,1.8-.1,2.7-.168.219-.679-.2-.908-.051.14-1.225.134-3.763.109-5.9-.013-1.181.01-5.664-.094-6.007-4.133-.057-8.259.5-8.261.293a1.694,1.694,0,0,1,2.07-2.055c.652-.006,1.3-.018,1.955-.029a.75.75,0,0,1,.529.688h.021c1.287-.063,2.695-.588,3.967-.236.2.053.746.264.861.48.008.025.015.053.022.081-.086,2.17-.165,4.31-.155,6.482C838.932,586.2,838.922,587.382,838.909,588.566Z" transform="translate(-19.383 -53.781)" fill="#9b8a8e" opacity="0.3" style="mix-blend-mode:multiply;isolation:isolate"/><path d="M830.758,578.357l7.865.086v11.9h-7.8l-.068-11.982M830.04,577a.634.634,0,0,0-.634.638l.076,13.417a.634.634,0,0,0,.634.63h9.221a.634.634,0,0,0,.634-.634V577.736a.634.634,0,0,0-.627-.634l-9.3-.1Z" transform="translate(-19.291 -53.591)" fill="#f2ede2"/><path d="M850.832,631.912l1.79-20.349H838.353v20.349Z" transform="translate(-22.568 -66.248)" fill="#d8662e"/><path d="M854.292,627.3c.229-1.7.49-3.4.731-5.1a35.888,35.888,0,0,1,2.266-9.592.349.349,0,0,1,.649.169c-.238,3.2-.759,6.4-1.194,9.582-.219,1.61-.43,3.222-.671,4.83a47.423,47.423,0,0,1-.79,5.113.8.8,0,0,1-1.573-.2A35.238,35.238,0,0,1,854.292,627.3Z" transform="translate(-28.192 -66.564)" fill="#9b8a8e" opacity="0.3" style="mix-blend-mode:multiply;isolation:isolate"/><path d="M851.976,612.431a1.108,1.108,0,0,0-1.255-.66.3.3,0,0,0-.034-.013c-.077-.025-.155-.046-.235-.069-.007.01-.013.018-.021.027-.475-.07-.949-.151-1.418-.213-.61-.083-1.216-.14-1.822-.179-.941,0-1.883.062-2.792.084-2.016.049-4.032.09-6.048.084-.085,0-.171,0-.256,0,.02.4-.8,1.481-.811,1.881l1.151.02c2.414.043,4.825.164,7.238.2.9.012,1.925-.064,2.851,0-2.179,2.6-3.6,4.771-5.6,7.52-1.192,1.634-2.3,3.324-3.4,5.018-.539.826-.72,1.007-1.2,1.87-.3.54-.087,2.625.4,2.67a17.271,17.271,0,0,0,.942-1.7c.511-.848,1.062-1.67,1.593-2.507,1.035-1.631,2.132-3.222,3.256-4.793,2.052-2.867,4.175-5.681,6.241-8.538a4.764,4.764,0,0,0,1.349-.321C852.063,612.682,852.023,612.556,851.976,612.431Z" transform="translate(-22.176 -66.16)" fill="#9b8a8e" opacity="0.3" style="mix-blend-mode:multiply;isolation:isolate"/><path d="M843.354,610.171H829.173a.62.62,0,0,1-1.112,0H813.88a.634.634,0,0,0-.631.689l1.834,20.847a.633.633,0,0,0,.631.579h12.347a.62.62,0,0,1,1.112,0h12.348a.634.634,0,0,0,.631-.579l1.833-20.847A.633.633,0,0,0,843.354,610.171Zm-1.665,1.8-11.353,16.192V611.967ZM826.9,628.159l-11.353-16.192H826.9ZM815.408,614.9l10.93,15.588h-9.559Zm25.047,15.588H830.9l10.93-15.588Z" transform="translate(-13.374 -65.738)" fill="#f2ede2"/><path d="M842.965,569.63c.208.24.605.636,1.158,1.161,1.086,2.692,7.091,10.3,8.463,17.27.186.054.363.112.538.172l.769-2.832,9.142-4.1-1.92,10.477-8.753,6.074-2.09-3.079a10.766,10.766,0,0,1-.971-2.143c-1.4-4.279-5.919-18.542-7.834-19.982-2.612-1.966-13.317-6.91-13.317-6.91L812,570.185l15.925-6.96a80.471,80.471,0,0,1,14.535,5.925A3.963,3.963,0,0,1,842.965,569.63Z" transform="translate(-12.916 -48.546)" fill="#9b3724" opacity="0.51"/><path d="M827.531,556.013l9.786-9.294h0l-.245.07c-.044.012-4.416,1.257-8.525,2.925-1.551.629-3.238,1.377-5.015,2.221a10.49,10.49,0,0,0-3.277,2.451l-9.98,9.5,17.118-7.742.137-.13.243.069Z" transform="translate(-12.286 -42.501)" fill="#bdb0b3"/><g transform="translate(815.245 504.218)"><path d="M878.537,579.942l-3.988-3.667a5.411,5.411,0,0,1-1.463-2.24c-.674-1.971-2.061-5.889-3.778-9.949-1.221-2.887-2.484-5.564-3.327-7.3a10.458,10.458,0,0,0-4.907-4.851c-1.778-.845-3.465-1.591-5.015-2.221-4.109-1.668-8.482-2.913-8.526-2.925l-.245-.07h0l-9.786,9.294.243.069c.044.013,4.417,1.257,8.526,2.925,1.55.629,3.236,1.377,5.015,2.221a10.452,10.452,0,0,1,4.907,4.851c.844,1.737,2.106,4.414,3.327,7.3,1.717,4.06,3.1,7.978,3.778,9.949a5.415,5.415,0,0,0,1.463,2.24l3.988,3.667a.634.634,0,0,1,.037.9l-.358.389,2.263-2.16.022.009,0-.033,7.295-6.962a.627.627,0,0,0,.205-.148l.358-.389A.634.634,0,0,0,878.537,579.942Z" transform="translate(-837.501 -546.719)" fill="#bdb0b3"/></g><g transform="translate(832.171 511.824)" opacity="0.3"><path d="M888.316,584.337l-3.988-3.666a5.411,5.411,0,0,1-1.463-2.24c-.674-1.971-2.061-5.889-3.778-9.949-1.221-2.887-2.484-5.564-3.327-7.3a10.328,10.328,0,0,0-1.687-2.46l-9.867,9.2.005.018h0a10.329,10.329,0,0,1,1.76,2.54c.844,1.737,2.106,4.414,3.327,7.3,1.717,4.06,3.1,7.978,3.778,9.949a5.415,5.415,0,0,0,1.463,2.24l3.988,3.667a.634.634,0,0,1,.037.9l-.358.389,2.263-2.16.022.009,0-.033,7.295-6.962a.628.628,0,0,0,.205-.148l.358-.389A.634.634,0,0,0,888.316,584.337Z" transform="translate(-864.206 -558.72)" fill="url(#c)"/></g><path d="M854.426,563.521l9.867-9.2a10.49,10.49,0,0,0-3.22-2.391c-1.778-.845-3.465-1.591-5.015-2.221-4.109-1.668-8.482-2.913-8.526-2.925l-.245-.07h0l-9.786,9.294.243.069c.044.013,4.417,1.257,8.526,2.925,1.55.629,3.236,1.377,5.015,2.221a10.472,10.472,0,0,1,3.147,2.311Z" transform="translate(-22.256 -42.501)" opacity="0.3" fill="url(#d)"/><path d="M827.531,556.013l9.786-9.294h0l-.245.07c-.044.012-4.416,1.257-8.525,2.925-1.551.629-3.238,1.377-5.015,2.221a10.49,10.49,0,0,0-3.277,2.451l-9.98,9.5,17.118-7.742.137-.13.243.069Z" transform="translate(-12.286 -42.501)" opacity="0.3" fill="url(#e)"/><path d="M850.253,595.891a.634.634,0,0,1-.9.037l-3.988-3.667a7.245,7.245,0,0,1-1.949-2.986c-.666-1.951-2.037-5.82-3.731-9.825-1.206-2.852-2.455-5.5-3.289-7.216a8.651,8.651,0,0,0-4.062-4.013c-1.747-.83-3.4-1.563-4.919-2.18-3.466-1.406-7.129-2.507-8.095-2.789-.967.283-4.63,1.383-8.095,2.789-1.519.617-3.173,1.35-4.92,2.18a8.655,8.655,0,0,0-4.062,4.013c-.835,1.72-2.084,4.369-3.289,7.216-1.7,4.01-3.066,7.877-3.731,9.825a7.261,7.261,0,0,1-1.949,2.986l-3.989,3.667a.633.633,0,0,1-.895-.037l-.358-.389a.633.633,0,0,1,.037-.9l3.988-3.667a5.416,5.416,0,0,0,1.464-2.241c.672-1.969,2.059-5.884,3.777-9.948,1.219-2.883,2.483-5.562,3.327-7.3a10.456,10.456,0,0,1,4.908-4.851c1.776-.844,3.464-1.591,5.015-2.221,4.109-1.668,8.481-2.912,8.525-2.925l.245-.069.245.069c.044.013,4.417,1.257,8.526,2.925,1.55.629,3.236,1.377,5.015,2.221a10.452,10.452,0,0,1,4.907,4.851c.844,1.737,2.106,4.414,3.328,7.3,1.717,4.06,3.1,7.978,3.778,9.949a5.416,5.416,0,0,0,1.464,2.24l3.988,3.667a.634.634,0,0,1,.037.9Z" transform="translate(-4.081 -47.871)" fill="#f2ede2"/><g transform="translate(832.171 511.824)" opacity="0.3"><path d="M888.316,584.337l-3.988-3.666a5.411,5.411,0,0,1-1.463-2.24c-.674-1.971-2.061-5.889-3.778-9.949-1.221-2.887-2.484-5.564-3.327-7.3a10.328,10.328,0,0,0-1.687-2.46l-9.867,9.2.005.018h0a10.329,10.329,0,0,1,1.76,2.54c.844,1.737,2.106,4.414,3.327,7.3,1.717,4.06,3.1,7.978,3.778,9.949a5.415,5.415,0,0,0,1.463,2.24l3.988,3.667a.634.634,0,0,1,.037.9l-.358.389,2.263-2.16.022.009,0-.033,7.295-6.962a.628.628,0,0,0,.205-.148l.358-.389A.634.634,0,0,0,888.316,584.337Z" transform="translate(-864.206 -558.72)" fill="url(#f)"/></g><g transform="translate(831.467 510)" opacity="0.3"><path d="M876.3,555.842c.228.142.452.29.667.448C876.754,556.132,876.531,555.983,876.3,555.842Z" transform="translate(-867.932 -555.842)" fill="url(#g)"/><path d="M877.54,556.691c.234.177.461.363.679.558Q877.891,556.956,877.54,556.691Z" transform="translate(-868.385 -556.153)" fill="url(#h)"/><path d="M879.376,558.324q-.328-.357-.688-.683Q879.047,557.968,879.376,558.324Z" transform="translate(-868.806 -556.501)" fill="url(#i)"/><path d="M863.1,572.17l.022.02Z" transform="translate(-863.096 -561.821)" fill="url(#j)"/></g><path d="M893.618,596.471,889.63,592.8c-.31-.285-1.477-.6-1.711-.949l-9.235,8.711a5.424,5.424,0,0,0,1.158,1.531l3.988,3.667a.634.634,0,0,1,.037.9l-.358.389,2.263-2.16.022.009,0-.033,7.295-6.962a.627.627,0,0,0,.205-.148l.358-.389A.634.634,0,0,0,893.618,596.471Z" transform="translate(-37.337 -59.031)" opacity="0.21" fill="url(#k)"/><g transform="translate(776.727 430.661)"><g transform="translate(75.737 57.491)"><path d="M896.225,530.663l.856,5.044,9.695-9.294-.856-5.044Z" transform="translate(-896.225 -521.37)" fill="url(#a)"/><path d="M896.225,530.663l.856,5.044,9.695-9.294-.856-5.044Z" transform="translate(-896.225 -521.37)" fill="url(#m)"/></g><g transform="translate(72.299 57.491)"><path d="M927.461,582.454l-.025.024H914.884a.9.9,0,0,1-.9-.9V522.357l.093-.089a.9.9,0,0,0-.9-.9h-4.561l-9.695,9.293h4.561l.865.865-.06.058v59.377l.008-.008a.9.9,0,0,0,.89.817h12.576l.991.873v8.983l-.3.669s9.561-9.162,9.724-9.321a.9.9,0,0,0,.269-.642h0v-8.983Z" transform="translate(-893.776 -521.37)" fill="url(#a)"/><path d="M901.133,521.37l-.011.01a.892.892,0,0,0-.534.253c-.163.162-9.723,9.137-9.787,9.4l.728-.371h2.71l9.695-9.293Z" transform="translate(-890.801 -521.37)" fill="url(#a)"/></g><path d="M917.234,522.787l-9.695,9.294v59.287l9.695-9.294Z" transform="translate(-824.631 -464.398)" fill="url(#p)"/><path d="M908.957,627.041l9.695-9.294h12.576l-9.695,9.294Z" transform="translate(-825.15 -499.173)" fill="url(#q)"/><path d="M915.817,521.37l-9.694,9.293.9.9,9.694-9.293A.9.9,0,0,0,915.817,521.37Z" transform="translate(-824.112 -463.879)" fill="#fbdf62" opacity="0.3"/><path d="M917.234,616.33l-9.694,9.294a.9.9,0,0,0,.9.9l9.694-9.293A.9.9,0,0,1,917.234,616.33Z" transform="translate(-824.631 -498.654)" fill="#fbdf62" opacity="0.3"/><path d="M901.223,521.37a.893.893,0,0,0-.635.263c-.163.162-9.723,9.137-9.787,9.4l.728-.371Z" transform="translate(-818.502 -463.879)" fill="url(#r)"/><path d="M939.911,619.165l-9.694,9.294v8.983l9.694-9.294Z" transform="translate(-832.936 -499.692)" fill="url(#s)"/><path d="M928.8,627.041l.9.9,9.694-9.294-.9-.9Z" transform="translate(-832.417 -499.173)" fill="#fbdf62" opacity="0.4"/><path d="M929.745,643.3s9.561-9.162,9.724-9.321a.9.9,0,0,0,.269-.642l-9.694,9.294Z" transform="translate(-832.763 -504.882)" fill="url(#t)"/><path d="M908.621,521.37l-9.695,9.294h4.561l9.695-9.294Z" transform="translate(-821.477 -463.879)" fill="url(#u)"/><path d="M891.949,530.663l9.694-9.294h2.71l-9.695,9.294Z" transform="translate(-818.922 -463.879)" fill="url(#v)"/><g transform="translate(-818.403 -469.249)" fill="#fbdf62" stroke-miterlimit="10"><path d="M 914.7850952148438 607.187744140625 L 901.3106079101562 607.187744140625 L 891.4297485351562 607.187744140625 C 891.324951171875 607.187744140625 891.2396850585938 607.102783203125 891.2396850585938 606.9983520507812 L 891.2396850585938 597.1168823242188 L 891.2396850585938 536.9310913085938 C 891.2396850585938 536.82666015625 891.324951171875 536.74169921875 891.4297485351562 536.74169921875 L 893.541259765625 536.74169921875 L 894.2968139648438 541.1953125 L 895.6941528320312 541.1953735351562 L 896.4502563476562 536.74169921875 L 900.4125366210938 536.74169921875 C 900.5169677734375 536.74169921875 900.6019287109375 536.82666015625 900.6019287109375 536.9310913085938 L 900.6019287109375 596.21875 C 900.6019287109375 597.104736328125 901.322998046875 597.8255615234375 902.2092895507812 597.8255615234375 L 914.7850952148438 597.8255615234375 C 914.8895263671875 597.8255615234375 914.9744873046875 597.9105224609375 914.9744873046875 598.0149536132812 L 914.9744873046875 606.9983520507812 C 914.9744873046875 607.102783203125 914.8895263671875 607.187744140625 914.7850952148438 607.187744140625 Z" stroke="none"/><path d="M 914.265869140625 606.4791259765625 L 914.265869140625 598.5341796875 L 902.2092895507812 598.5341796875 C 900.9322509765625 598.5341796875 899.893310546875 597.4954833984375 899.893310546875 596.21875 L 899.893310546875 537.4503173828125 L 897.0487060546875 537.4503173828125 L 894.9949951171875 549.5478515625 L 892.9426879882812 537.4503173828125 L 891.9483032226562 537.4503173828125 L 891.9483032226562 606.4791259765625 L 914.265869140625 606.4791259765625 M 914.7850952148438 607.8964233398438 L 891.4297485351562 607.8964233398438 C 890.9334716796875 607.8964233398438 890.531005859375 607.4939575195312 890.531005859375 606.9983520507812 L 890.531005859375 536.9310913085938 C 890.531005859375 536.4354858398438 890.9334716796875 536.0330200195312 891.4297485351562 536.0330200195312 L 894.1398315429688 536.0330200195312 L 894.9954833984375 541.0767822265625 L 895.8517456054688 536.0330200195312 L 900.4125366210938 536.0330200195312 C 900.9088134765625 536.0330200195312 901.3106079101562 536.4354858398438 901.3106079101562 536.9310913085938 L 901.3106079101562 596.21875 C 901.3106079101562 596.7150268554688 901.7130737304688 597.1168823242188 902.2092895507812 597.1168823242188 L 914.7850952148438 597.1168823242188 C 915.2813110351562 597.1168823242188 915.6831665039062 597.5193481445312 915.6831665039062 598.0149536132812 L 915.6831665039062 606.9983520507812 C 915.6831665039062 607.4939575195312 915.2813110351562 607.8964233398438 914.7850952148438 607.8964233398438 Z" stroke="none" fill="#f3be5b"/></g><g transform="translate(101.011 79.05)"><g transform="translate(24.572 49.279)"><path d="M984.862,633.138l-9.695,9.293-.3.8,9.624-9.234a.9.9,0,0,0,.177-.17l.009-.009,0-.006A.893.893,0,0,0,984.862,633.138Z" transform="translate(-974.871 -633.138)" fill="url(#a)"/></g><g transform="translate(9.261 49.279)"><path d="M960.7,633.138l-9.694,9.293-.3.8,9.624-9.234a.9.9,0,0,0,.177-.17l.009-.009,0-.006A.892.892,0,0,0,960.7,633.138Z" transform="translate(-950.713 -633.138)" fill="url(#a)"/></g><path d="M957.727,555.386a.9.9,0,0,0-.636.263c-.162.162-9.722,9.136-9.787,9.4l.728-.371Z" transform="translate(-940.204 -555.386)" fill="#f3be5b"/><path d="M953.02,619.819l9.695-9.293.82-9.843-9.695,9.294Z" transform="translate(-942.297 -571.974)" fill="url(#a)"/><path d="M951.159,641.47l9.695-9.294.58-2.554-9.695,8.785Z" transform="translate(-941.616 -582.572)" fill="url(#a)"/><path d="M951.159,641.47l9.695-9.294.58-2.554-9.695,8.785Z" transform="translate(-941.616 -582.572)" fill="url(#aa)"/><path d="M941.385,641.169l9.695-9.294,1.311-4.985-9.695,9.294Z" transform="translate(-938.036 -581.571)" fill="url(#a)"/><path d="M967.229,641.169l9.695-9.294.395-4.985-9.695,9.294Z" transform="translate(-947.501 -581.571)" fill="url(#a)"/><path d="M941.385,641.169l9.695-9.294,1.311-4.985-9.695,9.294Z" transform="translate(-938.036 -581.571)" fill="url(#ad)"/><path d="M967.229,641.169l9.695-9.294.395-4.985-9.695,9.294Z" transform="translate(-947.501 -581.571)" fill="url(#ad)"/><path d="M976.266,604.665l-6.93-48.508a.9.9,0,0,0-.889-.771h-9.221a.9.9,0,0,0-.889.771l-6.93,48.508a.9.9,0,0,0,.889,1.025h2.45l1.311-4.985.395,4.985h3.613a.9.9,0,0,0,.876-.7l.581-2.554a.9.9,0,0,1,.876-.7h2.877a.9.9,0,0,1,.876.7l.581,2.554a.9.9,0,0,0,.876.7h3.519l.395-4.985,1.311,4.985h2.545A.9.9,0,0,0,976.266,604.665Zm-11.609-9.754h-1.641a.9.9,0,0,1-.895-.973l.82-9.843a.9.9,0,0,1,1.79,0l.821,9.843A.9.9,0,0,1,964.657,594.911Z" transform="translate(-941.703 -555.386)" fill="url(#a)"/><path d="M952.914,620.632l9.534-9.134,1.048-10.816-9.62,8.393Z" transform="translate(-942.258 -571.974)" fill="url(#aa)"/><path d="M964.127,617.748l-9.695,9.294h2.539l8.8-9.294Z" transform="translate(-942.815 -578.223)" fill="url(#a)"/><path d="M967.368,555.386l-9.695,9.294h-9.221l9.695-9.294Z" transform="translate(-940.625 -555.386)" fill="url(#a)"/><path d="M974.1,556.6,964.4,565.9l6.93,48.508,9.695-9.294Z" transform="translate(-946.466 -555.831)" fill="url(#a)"/><path d="M974.1,556.6,964.4,565.9l6.93,48.508,9.695-9.294Z" transform="translate(-946.466 -555.831)" fill="url(#ak)"/><g transform="translate(17.049 0)" opacity="0.4"><path d="M972.7,555.386,963,564.679a.9.9,0,0,1,.889.771l9.694-9.294A.9.9,0,0,0,972.7,555.386Z" transform="translate(-963.002 -555.386)" fill="#fbdf62"/></g><g transform="translate(-936.102 -560.755)" fill="#fbdf62" stroke-miterlimit="10"><path d="M 960.080810546875 619.6445922851562 L 958.08251953125 619.6445922851562 L 956.91015625 615.1876220703125 L 955.5183715820312 615.3118896484375 L 955.1751708984375 619.6445922851562 L 952.3111572265625 619.6445922851562 C 952.2221069335938 619.6445922851562 952.1460571289062 619.5838012695312 952.126220703125 619.4967651367188 L 951.5457153320312 616.9429321289062 C 951.3790893554688 616.2068481445312 950.7346801757812 615.6922607421875 949.978759765625 615.6922607421875 L 947.101318359375 615.6922607421875 C 946.3464965820312 615.6922607421875 945.7022094726562 616.2064208984375 945.5344848632812 616.942626953125 L 944.953857421875 619.4970703125 C 944.9341430664062 619.584228515625 944.858154296875 619.6445922851562 944.7689819335938 619.6445922851562 L 941.8110961914062 619.6445922851562 L 941.4678955078125 615.3118896484375 L 940.0761108398438 615.1876220703125 L 938.90380859375 619.6445922851562 L 936.9999389648438 619.6445922851562 C 936.9283447265625 619.6445922851562 936.8825073242188 619.609130859375 936.856689453125 619.579345703125 C 936.830810546875 619.5494995117188 936.8021240234375 619.4990234375 936.812255859375 619.4280395507812 L 943.7415161132812 570.9205322265625 C 943.7548217773438 570.8278198242188 943.8355102539062 570.7576904296875 943.92919921875 570.7576904296875 L 953.1509399414062 570.7576904296875 C 953.24462890625 570.7576904296875 953.3253173828125 570.8278198242188 953.3386840820312 570.9208984375 L 960.2684936523438 619.4280395507812 C 960.2786254882812 619.4988403320312 960.2498779296875 619.54931640625 960.2239379882812 619.5791625976562 C 960.1980590820312 619.6090087890625 960.1522216796875 619.6445922851562 960.080810546875 619.6445922851562 Z M 948.5399780273438 597.2255249023438 C 947.6832885742188 597.2255249023438 947.009765625 597.84521484375 946.9383544921875 598.6989135742188 L 946.1182250976562 608.5419921875 C 946.0813598632812 608.9892578125 946.2344360351562 609.4343872070312 946.5380249023438 609.7640380859375 C 946.8414306640625 610.0934448242188 947.272216796875 610.2824096679688 947.7199096679688 610.2824096679688 L 949.3601684570312 610.2824096679688 C 949.8085327148438 610.2824096679688 950.2396850585938 610.0932006835938 950.543212890625 609.7633056640625 C 950.8465576171875 609.4335327148438 950.9992065429688 608.9883422851562 950.9619750976562 608.5418701171875 L 950.1411743164062 598.6990966796875 C 950.0701904296875 597.8453369140625 949.3967895507812 597.2255249023438 948.5399780273438 597.2255249023438 Z" stroke="none"/><path d="M 959.4823608398438 618.9359741210938 L 952.7007446289062 571.46630859375 L 944.37939453125 571.46630859375 L 937.598388671875 618.9359741210938 L 938.3574829101562 618.9359741210938 L 941.5149536132812 606.9312744140625 L 942.4658813476562 618.9359741210938 L 944.3546752929688 618.9359741210938 L 944.8435668945312 616.7852172851562 C 945.085205078125 615.7244873046875 946.013671875 614.983642578125 947.101318359375 614.983642578125 L 949.978759765625 614.983642578125 C 951.0680541992188 614.983642578125 951.9967041015625 615.7252807617188 952.2367553710938 616.785888671875 L 952.7254638671875 618.9359741210938 L 954.5204467773438 618.9359741210938 L 955.47119140625 606.9312744140625 L 958.6288452148438 618.9359741210938 L 959.4823608398438 618.9359741210938 M 948.5399780273438 596.5169067382812 C 949.7747802734375 596.5169067382812 950.7451782226562 597.4100341796875 950.8473510742188 598.6401977539062 L 951.6681518554688 608.48291015625 C 951.7218627929688 609.1263427734375 951.5018920898438 609.7679443359375 951.064697265625 610.2431640625 C 950.62744140625 610.7184448242188 950.0061645507812 610.9910278320312 949.3601684570312 610.9910278320312 L 947.7199096679688 610.9910278320312 C 947.0747680664062 610.9910278320312 946.4539794921875 610.7188110351562 946.0167846679688 610.244140625 C 945.5794067382812 609.769287109375 945.35888671875 609.1279296875 945.4119873046875 608.483154296875 L 946.2321166992188 598.639892578125 C 946.3350219726562 597.4097290039062 947.3056030273438 596.5169067382812 948.5399780273438 596.5169067382812 M 960.080810546875 620.353271484375 L 957.5361328125 620.353271484375 L 956.2247924804688 615.3678588867188 L 955.8299560546875 620.353271484375 L 952.3111572265625 620.353271484375 C 951.8915405273438 620.353271484375 951.5283813476562 620.06298828125 951.4352416992188 619.6541748046875 L 950.8546752929688 617.1000366210938 C 950.7621459960938 616.6912231445312 950.3983154296875 616.4009399414062 949.978759765625 616.4009399414062 L 947.101318359375 616.4009399414062 C 946.6817626953125 616.4009399414062 946.318603515625 616.6912231445312 946.2254638671875 617.1000366210938 L 945.6448974609375 619.6541748046875 C 945.5523681640625 620.06298828125 945.1885375976562 620.353271484375 944.7689819335938 620.353271484375 L 941.1563720703125 620.353271484375 L 940.761474609375 615.3678588867188 L 939.4501953125 620.353271484375 L 936.9999389648438 620.353271484375 C 936.4529418945312 620.353271484375 936.0333862304688 619.8690795898438 936.1107177734375 619.3278198242188 L 943.0399780273438 570.8203125 C 943.1033325195312 570.3779296875 943.4823608398438 570.0490112304688 943.92919921875 570.0490112304688 L 953.1509399414062 570.0490112304688 C 953.5977172851562 570.0490112304688 953.9767456054688 570.3779296875 954.0401611328125 570.8203125 L 960.9700317382812 619.3278198242188 C 961.04736328125 619.8690795898438 960.6271362304688 620.353271484375 960.080810546875 620.353271484375 Z M 948.5399780273438 597.9342041015625 C 948.115234375 597.9342041015625 947.6904907226562 598.2088012695312 947.64453125 598.7579956054688 L 946.8244018554688 608.600830078125 C 946.7813110351562 609.1243286132812 947.1945190429688 609.57373046875 947.7199096679688 609.57373046875 L 949.3601684570312 609.57373046875 C 949.88623046875 609.57373046875 950.2994384765625 609.1243286132812 950.2557373046875 608.600830078125 L 949.4349365234375 598.7579956054688 C 949.3892822265625 598.2088012695312 948.9646606445312 597.9342041015625 948.5399780273438 597.9342041015625 Z" stroke="none" fill="#f3be5b"/></g><path d="M967.368,555.386l-9.695,9.294h-9.221l9.695-9.294Z" transform="translate(-940.625 -555.386)" fill="url(#al)"/></g><g transform="translate(129.619 79.049)"><path d="M1027.976,555.384h-8.983a.9.9,0,0,0-.9.9v13.474l-10.51-14.013a.9.9,0,0,0-.719-.359h-9.432a.9.9,0,0,0-.9.9v48.508a.9.9,0,0,0,.9.9h2.71l.856-5.044.856,5.044h4.561a.9.9,0,0,0,.9-.9V575.146l10.78,14.373v15.272a.9.9,0,0,0,.9.9h4.561l.856-5.044.856,5.044h2.71a.9.9,0,0,0,.9-.9V556.283A.9.9,0,0,0,1027.976,555.384Z" transform="translate(-986.841 -555.384)" fill="url(#a)"/><path d="M997.774,643.3s9.562-9.162,9.724-9.321a.9.9,0,0,0,.269-.642l-9.695,9.294Z" transform="translate(-987.295 -583.931)" fill="#fbdf62"/><g transform="translate(10.33)" opacity="0.4"><path d="M998.258,565.037l9.695-9.293a.9.9,0,0,0-.719-.359l-9.694,9.293A.9.9,0,0,1,998.258,565.037Z" transform="translate(-997.539 -555.384)" fill="#fbdf62"/></g><path d="M1031.788,643.3s9.562-9.162,9.724-9.321a.894.894,0,0,0,.27-.641l-9.7,9.293Z" transform="translate(-999.751 -583.929)" fill="#fbdf62"/><path d="M986.933,641.135l9.695-9.294.856-5.044-9.695,9.294Z" transform="translate(-983.325 -581.536)" fill="url(#a)"/><path d="M1034.42,626.8l-9.695,9.294-.856,5.044,9.695-9.294Z" transform="translate(-996.851 -581.536)" fill="url(#a)"/><path d="M986.933,641.135l9.695-9.294.856-5.044-9.695,9.294Z" transform="translate(-983.325 -581.536)" fill="url(#ad)"/><path d="M1034.42,626.8l-9.695,9.294-.856,5.044,9.695-9.294Z" transform="translate(-996.851 -581.536)" fill="url(#ad)"/><path d="M982.657,564.678l9.695-9.294h9.432l-9.695,9.294Z" transform="translate(-981.759 -555.384)" fill="url(#a)"/><path d="M998.673,565.245l9.695-9.294,10.51,14.013-9.695,9.294Z" transform="translate(-987.624 -555.592)" fill="url(#as)"/><path d="M998.673,565.245l9.695-9.294,10.51,14.013-9.695,9.294Z" transform="translate(-987.624 -555.592)" fill="url(#at)"/><path d="M1016.673,564.678l9.695-9.294h8.983l-9.695,9.294Z" transform="translate(-994.216 -555.384)" fill="url(#a)"/><path d="M998.248,627.408l9.694-9.294V594.968l-3.438-3.2-6.256,6Z" transform="translate(-987.468 -568.707)" fill="url(#a)"/><path d="M998.248,627.408l9.694-9.294V594.968l-3.438-3.2-6.256,6Z" transform="translate(-987.468 -568.707)" fill="url(#aw)"/><path d="M1041.958,556.8l-9.695,9.294V614.6l9.695-9.294Z" transform="translate(-999.925 -555.903)" fill="url(#a)"/><path d="M1041.958,556.8l-9.695,9.294V614.6l9.695-9.294Z" transform="translate(-999.925 -555.903)" fill="url(#aw)"/><path d="M991.931,555.386a.9.9,0,0,0-.635.263c-.162.162-9.722,9.136-9.787,9.4l.728-.371Z" transform="translate(-981.338 -555.385)" fill="#f3be5b"/><path d="M1025.947,555.386a.894.894,0,0,0-.635.263c-.162.162-9.722,9.136-9.787,9.4l.728-.371Z" transform="translate(-993.795 -555.385)" fill="#f3be5b"/><path d="M1031.745,565.576l-.9-.9,9.695-9.294.9.9Z" transform="translate(-999.406 -555.384)" fill="#fbdf62" opacity="0.4"/><g transform="translate(-981.24 -560.754)" fill="#fbdf62" stroke-miterlimit="10"><path d="M 1012.679992675781 619.6438598632812 L 1010.568481445312 619.6438598632812 L 1009.812927246094 615.1903076171875 L 1008.415588378906 615.1902465820312 L 1007.659545898438 619.6438598632812 L 1003.697265625 619.6438598632812 C 1003.5927734375 619.6438598632812 1003.5078125 619.5588989257812 1003.5078125 619.4544677734375 L 1003.5078125 604.181884765625 L 1003.5078125 603.9456787109375 L 1003.366088867188 603.7567138671875 L 992.5865478515625 589.3841552734375 L 991.3109130859375 587.683349609375 L 991.3109130859375 589.809326171875 L 991.3109130859375 619.4544677734375 C 991.3109130859375 619.5588989257812 991.2259521484375 619.6438598632812 991.1215209960938 619.6438598632812 L 987.1592407226562 619.6438598632812 L 986.4031372070312 615.1902465820312 L 985.0057983398438 615.1902465820312 L 984.2496948242188 619.6438598632812 L 982.1381225585938 619.6438598632812 C 982.0336303710938 619.6438598632812 981.9486694335938 619.5588989257812 981.9486694335938 619.4544677734375 L 981.9486694335938 570.9457397460938 C 981.9486694335938 570.8409423828125 982.0336303710938 570.7556762695312 982.1381225585938 570.7556762695312 L 991.5702514648438 570.7556762695312 C 991.6295166015625 570.7556762695312 991.6864624023438 570.7843627929688 991.7227172851562 570.8324584960938 L 1002.232177734375 584.8453369140625 L 1003.5078125 586.5462036132812 L 1003.5078125 584.420166015625 L 1003.5078125 570.9457397460938 C 1003.5078125 570.8409423828125 1003.5927734375 570.7556762695312 1003.697265625 570.7556762695312 L 1012.679992675781 570.7556762695312 C 1012.784790039062 570.7556762695312 1012.870056152344 570.8409423828125 1012.870056152344 570.9457397460938 L 1012.870056152344 619.4544677734375 C 1012.870056152344 619.5588989257812 1012.784790039062 619.6438598632812 1012.679992675781 619.6438598632812 Z" stroke="none"/><path d="M 982.6572875976562 571.4642944335938 L 982.6572875976562 618.9352416992188 L 983.6512451171875 618.9352416992188 L 985.7044677734375 606.8408813476562 L 987.7576904296875 618.9352416992188 L 990.602294921875 618.9352416992188 L 990.602294921875 585.557373046875 L 1004.216430664062 603.7094116210938 L 1004.216430664062 618.9352416992188 L 1007.06103515625 618.9352416992188 L 1009.114685058594 606.837646484375 L 1011.167053222656 618.9352416992188 L 1012.161437988281 618.9352416992188 L 1012.161437988281 571.4642944335938 L 1004.216430664062 571.4642944335938 L 1004.216430664062 588.6721801757812 L 991.3107299804688 571.4642944335938 L 982.6572875976562 571.4642944335938 M 982.1381225585938 570.0469970703125 L 991.5702514648438 570.0469970703125 C 991.8529052734375 570.0469970703125 992.119140625 570.1807250976562 992.2889404296875 570.4063720703125 L 1002.799133300781 584.420166015625 L 1002.799133300781 570.9457397460938 C 1002.799133300781 570.449462890625 1003.200988769531 570.0469970703125 1003.697265625 570.0469970703125 L 1012.679992675781 570.0469970703125 C 1013.17626953125 570.0469970703125 1013.578735351562 570.449462890625 1013.578735351562 570.9457397460938 L 1013.578735351562 619.4544677734375 C 1013.578735351562 619.9500732421875 1013.17626953125 620.3525390625 1012.679992675781 620.3525390625 L 1009.969909667969 620.3525390625 L 1009.1142578125 615.308837890625 L 1008.258056640625 620.3525390625 L 1003.697265625 620.3525390625 C 1003.200988769531 620.3525390625 1002.799133300781 619.9500732421875 1002.799133300781 619.4544677734375 L 1002.799133300781 604.181884765625 L 992.0195922851562 589.809326171875 L 992.0195922851562 619.4544677734375 C 992.0195922851562 619.9500732421875 991.6171264648438 620.3525390625 991.1215209960938 620.3525390625 L 986.5607299804688 620.3525390625 L 985.7044677734375 615.308837890625 L 984.8482055664062 620.3525390625 L 982.1381225585938 620.3525390625 C 981.6424560546875 620.3525390625 981.239990234375 619.9500732421875 981.239990234375 619.4544677734375 L 981.239990234375 570.9457397460938 C 981.239990234375 570.449462890625 981.6424560546875 570.0469970703125 982.1381225585938 570.0469970703125 Z" stroke="none" fill="#f3be5b"/></g><path d="M982.657,564.678l9.695-9.294h9.432l-9.695,9.294Z" transform="translate(-981.759 -555.384)" fill="url(#az)"/><path d="M1016.673,564.678l9.695-9.294h8.983l-9.695,9.294Z" transform="translate(-994.216 -555.384)" fill="url(#ba)"/></g><path d="M828.855,475.921h-5.1a1,1,0,0,0-1,1V508a1,1,0,0,0,1,1h5.1c4.42,0,12.38-3.548,15.364-10.636a15.063,15.063,0,0,1-5.67,1.343h-5.1a.993.993,0,0,1-.389-.079l-.009-.005a.989.989,0,0,1-.307-.209c-.009-.01-.017-.021-.026-.031a1.013,1.013,0,0,1-.111-.143.991.991,0,0,1-.117-.272.979.979,0,0,1-.039-.259v-22.37A16.216,16.216,0,0,0,828.855,475.921Z" transform="translate(-793.583 -447.236)" fill="url(#a)"/><path d="M828.855,475.921h-5.1a1,1,0,0,0-1,1V508a1,1,0,0,0,1,1h5.1c4.42,0,12.38-3.548,15.364-10.636a15.063,15.063,0,0,1-5.67,1.343h-5.1a.993.993,0,0,1-.389-.079l-.009-.005a.989.989,0,0,1-.307-.209c-.009-.01-.017-.021-.026-.031a1.013,1.013,0,0,1-.111-.143.991.991,0,0,1-.117-.272.979.979,0,0,1-.039-.259v-22.37A16.216,16.216,0,0,0,828.855,475.921Z" transform="translate(-793.583 -447.236)" fill="url(#bc)"/><path d="M786.423,443.066l-9.693,9.3,8.243-2.226,9.695-9.294Z" transform="translate(-776.728 -434.392)" fill="url(#a)"/><path d="M786.423,443.066l-9.693,9.3,8.243-2.226,9.695-9.294Z" transform="translate(-776.728 -434.392)" fill="url(#be)"/><path d="M780.214,446.563l9.633-9.207,6.258,1.2-8.05,6.562Z" transform="translate(-778.004 -433.113)" fill="url(#a)"/><path d="M832.451,493.916l-9.695,9.294V472.126l9.695-9.294Z" transform="translate(-793.583 -442.442)" fill="url(#bg)"/><path d="M833.449,512.874a1,1,0,0,1-1-1l-9.7,9.293h0a1,1,0,0,0,.751.963l.247.035,9.694-9.293Z" transform="translate(-793.583 -460.402)" fill="#fbdf62" opacity="0.4"/><path d="M808.115,550.426l9.695-9.294.856-5.044-9.695,9.294Z" transform="translate(-788.221 -469.269)" fill="url(#a)"/><path d="M808.115,550.426l9.695-9.294.856-5.044-9.695,9.294Z" transform="translate(-788.221 -469.269)" fill="url(#ad)"/><path d="M780.214,446.563l9.633-9.207,6.258,1.2-8.05,6.562Z" transform="translate(-778.004 -433.113)" fill="url(#bj)"/><path d="M849.6,443.329a34.7,34.7,0,0,0-3.7-3.685c-.688-.589-1.4-1.141-2.123-1.673q-.755-.554-1.532-1.068A37.955,37.955,0,0,0,836.5,433.8q-.628-.274-1.263-.524-.977-.384-1.963-.712a36.232,36.232,0,0,0-11.328-1.9H795.629a2.018,2.018,0,0,0-.8.1c-.832.442-9.759,9.346-9.759,9.346.066-.1.331-.152.868-.152h26.314c15.969,0,35.931,11.977,35.931,35.932,0,17.607-12.94,28.735-24.554,33.4l.008,0c13.89-5.524,34.241-18.744,34.241-42.7h0A34.768,34.768,0,0,0,849.6,443.329Z" transform="translate(-779.781 -430.661)" fill="url(#a)"/><path d="M849.6,443.329a34.7,34.7,0,0,0-3.7-3.685c-.688-.589-1.4-1.141-2.123-1.673q-.755-.554-1.532-1.068A37.955,37.955,0,0,0,836.5,433.8q-.628-.274-1.263-.524-.977-.384-1.963-.712a36.232,36.232,0,0,0-11.328-1.9H795.629a2.018,2.018,0,0,0-.8.1c-.832.442-9.759,9.346-9.759,9.346.066-.1.331-.152.868-.152h26.314c15.969,0,35.931,11.977,35.931,35.932,0,17.607-12.94,28.735-24.554,33.4l.008,0c13.89-5.524,34.241-18.744,34.241-42.7h0A34.768,34.768,0,0,0,849.6,443.329Z" transform="translate(-779.781 -430.661)" fill="url(#bl)"/><path d="M849.6,443.329a34.7,34.7,0,0,0-3.7-3.685c-.688-.589-1.4-1.141-2.123-1.673q-.755-.554-1.532-1.068A37.955,37.955,0,0,0,836.5,433.8q-.628-.274-1.263-.524-.977-.384-1.963-.712a36.232,36.232,0,0,0-11.328-1.9H795.629a2.018,2.018,0,0,0-.8.1c-.832.442-9.759,9.346-9.759,9.346.066-.1.331-.152.868-.152h26.314c15.969,0,35.931,11.977,35.931,35.932,0,17.607-12.94,28.735-24.554,33.4l.008,0c13.89-5.524,34.241-18.744,34.241-42.7h0A34.768,34.768,0,0,0,849.6,443.329Z" transform="translate(-779.781 -430.661)" fill="url(#bm)"/><g transform="translate(-776.727 -436.031)" fill="#fbdf62" stroke-miterlimit="10"><path d="M 809.1944580078125 516.69140625 L 798.75146484375 516.69140625 L 797.9652709960938 512.0606689453125 L 796.9871215820312 512.0607299804688 L 796.2015991210938 516.69140625 L 790.2300415039062 516.69140625 C 790.034912109375 516.69140625 789.8558349609375 516.5750732421875 789.7739868164062 516.3950805664062 L 789.7609252929688 516.397705078125 C 789.72802734375 516.3277587890625 789.7119750976562 516.2594604492188 789.7119750976562 516.189208984375 L 789.7119750976562 458.5950317382812 L 789.7119750976562 458.0989685058594 L 789.6832885742188 458.0989685058594 C 789.5715942382812 457.1199340820312 789.1295166015625 456.2179870605469 788.4107666015625 455.5195922851562 C 787.6105346679688 454.7432250976562 786.55712890625 454.3139953613281 785.4426879882812 454.3095397949219 C 785.154541015625 454.2900390625 781.1543579101562 454.0178833007812 778.5555419921875 453.7921447753906 C 780.2379760742188 453.3046264648438 783.0032958984375 452.6558227539062 785.0630493164062 452.2686157226562 C 785.39501953125 452.2064208984375 785.5211181640625 451.956787109375 785.5281982421875 451.761962890625 C 785.5436401367188 451.3377380371094 785.4334106445312 451.1797485351562 782.8574829101562 450.3772277832031 C 781.9454956054688 450.0931091308594 780.8905639648438 449.7866516113281 780.1109619140625 449.5701904296875 C 780.3001098632812 449.5218200683594 780.5301513671875 449.4676208496094 780.809814453125 449.4076538085938 C 781.656494140625 449.2261047363281 782.692138671875 449.0453796386719 783.6937255859375 448.87060546875 C 785.1015014648438 448.6249389648438 786.3172607421875 448.4127807617188 786.93115234375 448.2187194824219 C 787.1553344726562 448.1477966308594 787.303466796875 447.9559631347656 787.3086547851562 447.7300109863281 C 787.3191528320312 447.2719421386719 787.0413818359375 447.1698913574219 785.2340087890625 446.5057373046875 C 784.7469482421875 446.3267517089844 784.03173828125 446.06396484375 783.4403686523438 445.820068359375 L 790.2300415039062 445.820068359375 L 791.1179809570312 445.820068359375 L 809.1944580078125 445.820068359375 C 813.1773681640625 445.820068359375 817.3897094726562 446.5863037109375 821.3760986328125 448.0359802246094 C 825.6333618164062 449.5841064453125 829.4855346679688 451.8207092285156 832.8255615234375 454.6836547851562 C 836.457763671875 457.7970275878906 839.311767578125 461.5194396972656 841.308349609375 465.7474975585938 C 843.5120849609375 470.4141845703125 844.6294555664062 475.6318969726562 844.6294555664062 481.2557067871094 C 844.6294555664062 486.7891235351562 843.3273315429688 491.9987182617188 840.7593383789062 496.73974609375 C 838.5120239257812 500.8886413574219 835.3433837890625 504.6156921386719 831.3413696289062 507.8172912597656 C 827.8751831054688 510.5903015136719 823.8444213867188 512.8936157226562 819.684814453125 514.4782104492188 C 815.9384155273438 515.9053955078125 812.212890625 516.69140625 809.1944580078125 516.69140625 Z M 806.898193359375 464.2201538085938 C 806.0742797851562 464.2201538085938 805.4039916992188 464.8901977539062 805.4039916992188 465.7138061523438 L 805.4039916992188 496.7976379394531 C 805.4039916992188 497.6216125488281 806.0742797851562 498.2919311523438 806.898193359375 498.2919311523438 L 811.9990234375 498.2919311523438 C 817.9442138671875 498.2919311523438 829.0344848632812 492.4408569335938 829.0344848632812 481.2557067871094 C 829.0344848632812 469.5054626464844 819.0726928710938 464.2201538085938 811.9990234375 464.2201538085938 L 806.898193359375 464.2201538085938 Z" stroke="none"/><path d="M 786.1500854492188 446.3161010742188 C 786.3417358398438 446.3883666992188 786.5178833007812 446.4564819335938 786.6700439453125 446.5186157226562 C 787.1561279296875 446.7171020507812 787.8218383789062 446.9889526367188 787.8045654296875 447.7413330078125 C 787.7946166992188 448.1759643554688 787.5037841796875 448.557861328125 787.0806884765625 448.6917114257812 C 786.4351806640625 448.895751953125 785.2042846679688 449.1105346679688 783.7789916992188 449.3592529296875 C 783.3104248046875 449.4410400390625 782.7379150390625 449.5409545898438 782.164794921875 449.647216796875 C 782.4502563476562 449.7327270507812 782.7339477539062 449.8191528320312 783.0050659179688 449.9036254882812 C 783.7144165039062 450.1246337890625 784.2808227539062 450.3138427734375 784.6884765625 450.4660034179688 C 785.2965087890625 450.6929931640625 786.0531616210938 450.9754638671875 786.02392578125 451.7799682617188 C 786.0091552734375 452.1875305175781 785.7344970703125 452.6474914550781 785.1547241210938 452.7561340332031 C 784.07861328125 452.9584350585938 782.7741088867188 453.2407531738281 781.5401611328125 453.5329895019531 C 783.4430541992188 453.6760559082031 785.2055053710938 453.7962341308594 785.4608764648438 453.8135681152344 C 786.6983032226562 453.8225708007812 787.8671875 454.3010864257812 788.7564086914062 455.163818359375 C 789.44970703125 455.8374328613281 789.9122314453125 456.680908203125 790.1053466796875 457.6029052734375 L 790.2080688476562 457.6029052734375 L 790.2080688476562 516.1513671875 L 790.2254638671875 516.1895751953125 C 790.2269287109375 516.1928100585938 790.2296142578125 516.1953125 790.2300415039062 516.1953125 L 795.7825927734375 516.1953125 L 797.4757690429688 506.2139587402344 L 799.17041015625 516.1953125 L 809.1944580078125 516.1953125 C 812.154052734375 516.1953125 815.8168334960938 515.4208984375 819.5081787109375 514.0146484375 C 823.6203002929688 512.4481201171875 827.60498046875 510.1711730957031 831.031494140625 507.429931640625 C 834.9814453125 504.2699584960938 838.1076049804688 500.5937805175781 840.3231201171875 496.5034790039062 C 842.8514404296875 491.8357849121094 844.1333618164062 486.7057189941406 844.1333618164062 481.2557067871094 C 844.1333618164062 475.7057189941406 843.031982421875 470.5592651367188 840.8598022460938 465.9593200683594 C 838.8932495117188 461.7948608398438 836.08154296875 458.1278991699219 832.5027465820312 455.0602722167969 C 829.2081298828125 452.2362976074219 825.4075927734375 450.0298461914062 821.2066040039062 448.5021362304688 C 817.27392578125 447.072021484375 813.1201782226562 446.3161010742188 809.1944580078125 446.3161010742188 L 786.1500854492188 446.3161010742188 M 811.9990234375 498.7879943847656 L 806.898193359375 498.7879943847656 C 805.8007202148438 498.7879943847656 804.9078979492188 497.8951110839844 804.9078979492188 496.7976379394531 L 804.9078979492188 465.7138061523438 C 804.9078979492188 464.6166687011719 805.8007202148438 463.7240905761719 806.898193359375 463.7240905761719 L 811.9990234375 463.7240905761719 C 819.2786865234375 463.7240905761719 829.5305786132812 469.1632995605469 829.5305786132812 481.2557067871094 C 829.5305786132812 487.8015441894531 825.9552001953125 492.0359497070312 822.955810546875 494.4355163574219 C 819.65087890625 497.0795593261719 815.35009765625 498.7879943847656 811.9990234375 498.7879943847656 M 782.8805541992188 445.323974609375 L 809.1944580078125 445.323974609375 C 825.16357421875 445.323974609375 845.12548828125 457.3014526367188 845.12548828125 481.2557067871094 C 845.12548828125 505.2106018066406 821.1712646484375 517.1874389648438 809.1944580078125 517.1874389648438 L 798.33251953125 517.1874389648438 L 797.4761962890625 512.1436767578125 L 796.62060546875 517.1874389648438 L 790.2300415039062 517.1874389648438 C 789.82568359375 517.1874389648438 789.4796142578125 516.9459228515625 789.3224487304688 516.6005249023438 L 789.32177734375 516.6290283203125 C 789.2559204101562 516.4959716796875 789.2159423828125 516.3482666015625 789.2159423828125 516.189208984375 L 789.21533203125 458.5950317382812 C 789.21533203125 457.5283508300781 788.774169921875 456.5643615722656 788.0650634765625 455.8753967285156 C 787.3824462890625 455.2131042480469 786.451416015625 454.8055725097656 785.42529296875 454.8055725097656 C 785.42529296875 454.8055725097656 779.2445068359375 454.3885498046875 777.040771484375 454.1458129882812 C 776.8081665039062 454.1204528808594 776.7124633789062 454.0729064941406 776.7289428710938 454.0076293945312 C 776.844970703125 453.5531921386719 782.4527587890625 452.2545471191406 784.971435546875 451.7810974121094 C 785.62744140625 451.6581420898438 780.8125 450.26318359375 779.3560791015625 449.8790893554688 C 778.876220703125 449.7523193359375 778.774169921875 449.61865234375 778.9371337890625 449.4810791015625 C 779.642578125 448.8859252929688 785.320068359375 448.207763671875 786.7816162109375 447.7457275390625 C 787.2784423828125 447.5885620117188 781.6553955078125 445.9907836914062 782.012939453125 445.4761352539062 C 782.078857421875 445.38037109375 782.34375 445.323974609375 782.8805541992188 445.323974609375 Z M 811.9990234375 497.7958679199219 C 817.51171875 497.7958679199219 828.5384521484375 492.282470703125 828.5384521484375 481.2557067871094 C 828.5384521484375 470.2295837402344 819.3497314453125 464.7162170410156 811.9990234375 464.7162170410156 L 806.898193359375 464.7162170410156 C 806.3468017578125 464.7162170410156 805.9000244140625 465.1630554199219 805.9000244140625 465.7138061523438 L 805.9000244140625 496.7976379394531 C 805.9000244140625 497.3490295410156 806.3468017578125 497.7958679199219 806.898193359375 497.7958679199219 L 811.9990234375 497.7958679199219 Z" stroke="none" fill="#f3be5b"/></g><g transform="translate(72.128)"><path d="M938.166,440.542v-8.983a.9.9,0,0,0-.9-.9H906.726a.9.9,0,0,0-.9.9v48.508a.9.9,0,0,0,.9.9h30.542a.9.9,0,0,0,.9-.9v-8.983a.9.9,0,0,0-.9-.9H917.505a.9.9,0,0,1-.9-.9V462.1a.9.9,0,0,1,.9-.9h8.983a.9.9,0,0,0,.9-.9v-8.983a.9.9,0,0,0-.9-.9h-8.983a.9.9,0,0,1-.9-.9v-7.187a.9.9,0,0,1,.9-.9h19.762A.9.9,0,0,0,938.166,440.542Z" transform="translate(-896.133 -430.661)" fill="#f3be5b"/><path d="M951.25,494.441l-9.695,9.294v8.983l9.695-9.294Z" transform="translate(-909.216 -454.017)" fill="url(#a)"/><path d="M941.126,456.476l9.815-9.437h-.369l-9.174,8.795Z" transform="translate(-909.059 -436.659)" fill="#fbdf62"/><path d="M924.244,487.252l9.654-9.282h-.008a.891.891,0,0,0,.233-.6v-.107l-9.9,9.478Z" transform="translate(-902.869 -447.728)" fill="#fbdf62"/><path d="M951.25,494.441l-9.695,9.294v8.983l9.695-9.294Z" transform="translate(-909.216 -454.017)" fill="url(#a)"/><path d="M951.25,432.078l-9.695,9.294v8.983l9.695-9.294Z" transform="translate(-909.216 -431.18)" fill="url(#a)"/><path d="M901.223,430.661a.9.9,0,0,0-.635.263c-.163.163-9.723,9.137-9.787,9.4l.728-.372Z" transform="translate(-890.63 -430.661)" fill="#f3be5b"/><path d="M918.651,493.023l-9.695,9.294h19.762l9.695-9.294Z" transform="translate(-897.279 -453.499)" fill="url(#bq)"/><path d="M951.25,494.441l-9.695,9.294v8.983l9.695-9.294Z" transform="translate(-909.216 -454.017)" fill="url(#bg)"/><path d="M940.138,502.317l.9.9,9.695-9.294-.9-.9Z" transform="translate(-908.697 -453.499)" fill="#fbdf62" opacity="0.3"/><path d="M891.949,439.955l9.695-9.294h30.542l-9.695,9.294Z" transform="translate(-891.05 -430.661)" fill="url(#bs)"/><path d="M951.25,432.078l-9.695,9.294v8.983l9.695-9.294Z" transform="translate(-909.216 -431.18)" fill="url(#bg)"/><path d="M927.634,461.842l-9.695,9.294h-8.983l9.695-9.294Z" transform="translate(-897.279 -442.08)" fill="url(#bu)"/><path d="M934.242,463.26l-9.695,9.294v8.983l9.695-9.294Z" transform="translate(-902.988 -442.599)" fill="url(#a)"/><path d="M917.234,456.273l-9.695,9.294V458.38l9.695-9.294Z" transform="translate(-896.76 -437.408)" fill="url(#bg)"/><path d="M907.539,496.747l9.695-9.293v-7.186l-9.695,9.294Z" transform="translate(-896.76 -448.827)" fill="url(#bg)"/><g transform="translate(10.783 39.524)" opacity="0.4"><path d="M918.1,493.022a2.937,2.937,0,0,1-.674.311h-1.443l-8.435,8.116a.9.9,0,0,0,.895.868h.036l9.66-9.294Z" transform="translate(-907.544 -493.022)" fill="#fbdf62"/></g><g transform="translate(10.761 20.073)" opacity="0.4"><path d="M915.945,462.332l-8.435,8.116a.9.9,0,0,0,.9.868h.035l9.336-8.983Z" transform="translate(-907.51 -462.332)" fill="#fbdf62"/></g><path d="M949.833,430.661l-9.694,9.293.5.5.187.187.214.214,9.694-9.294A.9.9,0,0,0,949.833,430.661Z" transform="translate(-908.697 -430.661)" fill="#fbdf62"/><path d="M941.126,518.838l9.815-9.437h-.369L941.4,518.2Z" transform="translate(-909.059 -459.496)" fill="#fbdf62"/><path d="M934.242,463.26l-9.695,9.294v8.983l9.695-9.294Z" transform="translate(-902.988 -442.599)" fill="url(#by)"/><g transform="translate(20.77 19.762)" opacity="0.5"><path d="M924.091,472.034l9.695-9.293a.9.9,0,0,0-.9-.9l-9.586,9.189a3.016,3.016,0,0,0,.188.873c.086.245.187.487.28.731a.861.861,0,0,1,.135-.014h.186Z" transform="translate(-923.302 -461.842)" fill="#fbdf62"/></g><g transform="translate(-890.531 -436.031)" fill="#fbdf62" stroke-miterlimit="10"><path d="M 921.9716796875 494.9202575683594 L 901.3106079101562 494.9202575683594 L 891.4297485351562 494.9202575683594 C 891.324951171875 494.9202575683594 891.2396850585938 494.8349914550781 891.2396850585938 494.7301635742188 L 891.2396850585938 484.8493347167969 L 891.2396850585938 475.8659362792969 L 891.2396850585938 465.0870056152344 L 891.2396850585938 456.1035766601562 L 891.2396850585938 446.2227478027344 C 891.2396850585938 446.1179504394531 891.324951171875 446.0326843261719 891.4297485351562 446.0326843261719 L 901.3106079101562 446.0326843261719 L 921.9716796875 446.0326843261719 C 922.0761108398438 446.0326843261719 922.1610717773438 446.1179504394531 922.1610717773438 446.2227478027344 L 922.1610717773438 455.2055053710938 C 922.1610717773438 455.3099365234375 922.0761108398438 455.3949279785156 921.9716796875 455.3949279785156 L 902.2086791992188 455.3949279785156 C 901.32275390625 455.3949279785156 900.6019287109375 456.1159973144531 900.6019287109375 457.0023193359375 L 900.6019287109375 464.1882629394531 C 900.6019287109375 465.0745849609375 901.32275390625 465.7956848144531 902.2086791992188 465.7956848144531 L 911.1920776367188 465.7956848144531 C 911.2965087890625 465.7956848144531 911.3814697265625 465.8806457519531 911.3814697265625 465.9850769042969 L 911.3814697265625 474.9678344726562 C 911.3814697265625 475.0722961425781 911.2965087890625 475.1572875976562 911.1920776367188 475.1572875976562 L 902.2086791992188 475.1572875976562 C 901.32275390625 475.1572875976562 900.6019287109375 475.8783264160156 900.6019287109375 476.7646484375 L 900.6019287109375 483.9506225585938 C 900.6019287109375 484.8369445800781 901.32275390625 485.5579833984375 902.2086791992188 485.5579833984375 L 921.9716796875 485.5579833984375 C 922.0761108398438 485.5579833984375 922.1610717773438 485.6429748535156 922.1610717773438 485.7474060058594 L 922.1610717773438 494.7301635742188 C 922.1610717773438 494.8349914550781 922.0761108398438 494.9202575683594 921.9716796875 494.9202575683594 Z" stroke="none"/><path d="M 891.9483032226562 446.7413330078125 L 891.9483032226562 494.2115783691406 L 921.4524536132812 494.2115783691406 L 921.4524536132812 486.2666625976562 L 902.2086791992188 486.2666625976562 C 900.9319458007812 486.2666625976562 899.893310546875 485.2276916503906 899.893310546875 483.9506225585938 L 899.893310546875 476.7646484375 C 899.893310546875 475.4875793457031 900.9319458007812 474.4486083984375 902.2086791992188 474.4486083984375 L 910.6728515625 474.4486083984375 L 910.6728515625 466.5043334960938 L 902.2086791992188 466.5043334960938 C 900.9319458007812 466.5043334960938 899.893310546875 465.46533203125 899.893310546875 464.1882629394531 L 899.893310546875 457.0023193359375 C 899.893310546875 455.7252502441406 900.9319458007812 454.6862487792969 902.2086791992188 454.6862487792969 L 921.4524536132812 454.6862487792969 L 921.4524536132812 446.7413330078125 L 891.9483032226562 446.7413330078125 M 891.4297485351562 445.3240051269531 L 921.9716796875 445.3240051269531 C 922.46728515625 445.3240051269531 922.8697509765625 445.7264709472656 922.8697509765625 446.2227478027344 L 922.8697509765625 455.2055053710938 C 922.8697509765625 455.7017517089844 922.46728515625 456.1035766601562 921.9716796875 456.1035766601562 L 902.2086791992188 456.1035766601562 C 901.7130737304688 456.1035766601562 901.3106079101562 456.5060424804688 901.3106079101562 457.0023193359375 L 901.3106079101562 464.1882629394531 C 901.3106079101562 464.6845397949219 901.7130737304688 465.0870056152344 902.2086791992188 465.0870056152344 L 911.1920776367188 465.0870056152344 C 911.6883544921875 465.0870056152344 912.0901489257812 465.4888305664062 912.0901489257812 465.9850769042969 L 912.0901489257812 474.9678344726562 C 912.0901489257812 475.464111328125 911.6883544921875 475.8659362792969 911.1920776367188 475.8659362792969 L 902.2086791992188 475.8659362792969 C 901.7130737304688 475.8659362792969 901.3106079101562 476.2684020996094 901.3106079101562 476.7646484375 L 901.3106079101562 483.9506225585938 C 901.3106079101562 484.4468688964844 901.7130737304688 484.8493347167969 902.2086791992188 484.8493347167969 L 921.9716796875 484.8493347167969 C 922.46728515625 484.8493347167969 922.8697509765625 485.2511596679688 922.8697509765625 485.7474060058594 L 922.8697509765625 494.7301635742188 C 922.8697509765625 495.2264404296875 922.46728515625 495.62890625 921.9716796875 495.62890625 L 891.4297485351562 495.62890625 C 890.9334716796875 495.62890625 890.531005859375 495.2264404296875 890.531005859375 494.7301635742188 L 890.531005859375 446.2227478027344 C 890.531005859375 445.7264709472656 890.9334716796875 445.3240051269531 891.4297485351562 445.3240051269531 Z" stroke="none" fill="#f3be5b"/></g></g><g transform="translate(108.197)"><path d="M998.035,456.476l9.815-9.437h-.369l-9.174,8.795Z" transform="translate(-965.968 -436.659)" fill="#fbdf62"/><path d="M994.176,430.661H963.634a.9.9,0,0,0-.9.9v70.067a.9.9,0,0,0,.9.9h2.71l.856-5.044.856,5.044h4.56a.9.9,0,0,0,.9-.9V481.863a.9.9,0,0,1,.9-.9H983.4a.9.9,0,0,0,.9-.9v-8.983a.9.9,0,0,0-.9-.9h-8.983a.9.9,0,0,1-.9-.9V442.339a.9.9,0,0,1,.9-.9h19.762a.9.9,0,0,0,.9-.9v-8.983A.9.9,0,0,0,994.176,430.661Z" transform="translate(-953.042 -430.661)" fill="url(#a)"/><path d="M980.984,518.577s9.562-9.162,9.724-9.321a.9.9,0,0,0,.27-.641l-9.695,9.293Z" transform="translate(-959.724 -459.208)" fill="#fbdf62"/><path d="M953.989,545.383l9.695-9.294-.856,5.044-9.695,9.294Z" transform="translate(-949.525 -469.269)" fill="url(#a)"/><path d="M953.989,545.383l9.695-9.294-.856,5.044-9.695,9.294Z" transform="translate(-949.525 -469.269)" fill="url(#ad)"/><path d="M998.463,441.372l9.695-9.294v8.983l-9.695,9.294Z" transform="translate(-966.125 -431.18)" fill="url(#a)"/><path d="M964.448,458.38l9.695-9.294v26.949l-9.695,9.294Z" transform="translate(-953.668 -437.408)" fill="url(#cd)"/><path d="M965.865,502.317l9.695-9.294h8.983l-9.695,9.294Z" transform="translate(-954.187 -453.498)" fill="url(#ce)"/><path d="M981.456,503.734l9.695-9.294v8.983l-9.695,9.294Z" transform="translate(-959.897 -454.017)" fill="url(#a)"/><path d="M948.857,439.955l9.695-9.294h30.542l-9.695,9.294Z" transform="translate(-947.959 -430.661)" fill="url(#cg)"/><path d="M974.142,531.211V511.448l-9.695,8.4V540.5Z" transform="translate(-953.668 -460.246)" fill="url(#a)"/><path d="M974.142,531.211V511.448l-9.695,8.4V540.5Z" transform="translate(-953.668 -460.246)" fill="url(#ci)"/><path d="M1006.74,430.661l-9.694,9.293.9.9,9.7-9.294A.9.9,0,0,0,1006.74,430.661Z" transform="translate(-965.606 -430.661)" fill="#fbdf62"/><path d="M989.733,493.023l-9.695,9.294.9.9,9.695-9.293A.9.9,0,0,0,989.733,493.023Z" transform="translate(-959.378 -453.498)" fill="#fbdf62" opacity="0.5"/><path d="M958.126,430.661a.9.9,0,0,0-.636.263c-.162.163-9.722,9.137-9.787,9.4l.728-.372Z" transform="translate(-947.536 -430.661)" fill="#f3be5b"/><path d="M963.976,552.592s9.562-9.162,9.724-9.321a.9.9,0,0,0,.269-.641l-9.695,9.293Z" transform="translate(-953.496 -471.664)" fill="#fbdf62"/><g transform="translate(-947.44 -436.031)" fill="#fbdf62" stroke-miterlimit="10"><path d="M 957.3209228515625 516.478759765625 L 953.358642578125 516.478759765625 L 952.6031494140625 512.025146484375 L 951.205810546875 512.0250854492188 L 950.44970703125 516.478759765625 L 948.338134765625 516.478759765625 C 948.233642578125 516.478759765625 948.148681640625 516.393798828125 948.148681640625 516.2893676757812 L 948.148681640625 446.2227478027344 C 948.148681640625 446.1179504394531 948.233642578125 446.0326538085938 948.338134765625 446.0326538085938 L 978.8800659179688 446.0326538085938 C 978.9844970703125 446.0326538085938 979.0694580078125 446.1179504394531 979.0694580078125 446.2227478027344 L 979.0694580078125 455.2055053710938 C 979.0694580078125 455.3099365234375 978.9844970703125 455.3949279785156 978.8800659179688 455.3949279785156 L 959.11767578125 455.3949279785156 C 958.231689453125 455.3949279785156 957.5109252929688 456.1159973144531 957.5109252929688 457.0023193359375 L 957.5109252929688 483.9506225585938 C 957.5109252929688 484.8369445800781 958.231689453125 485.5579833984375 959.11767578125 485.5579833984375 L 968.1004638671875 485.5579833984375 C 968.2052612304688 485.5579833984375 968.2904663085938 485.6429748535156 968.2904663085938 485.7474060058594 L 968.2904663085938 494.7301635742188 C 968.2904663085938 494.8349914550781 968.2052612304688 494.9202575683594 968.1004638671875 494.9202575683594 L 959.11767578125 494.9202575683594 C 958.231689453125 494.9202575683594 957.5109252929688 495.6410217285156 957.5109252929688 496.5269775390625 L 957.5109252929688 516.2893676757812 C 957.5109252929688 516.393798828125 957.4257202148438 516.478759765625 957.3209228515625 516.478759765625 Z" stroke="none"/><path d="M 948.8573608398438 446.7412719726562 L 948.8573608398438 515.7701416015625 L 949.8512573242188 515.7701416015625 L 951.905029296875 503.6723327636719 L 953.9572143554688 515.7701416015625 L 956.8023071289062 515.7701416015625 L 956.8023071289062 496.5269775390625 C 956.8023071289062 495.2502746582031 957.8409423828125 494.2115783691406 959.11767578125 494.2115783691406 L 967.5818481445312 494.2115783691406 L 967.5818481445312 486.2666625976562 L 959.11767578125 486.2666625976562 C 957.8409423828125 486.2666625976562 956.8023071289062 485.2276916503906 956.8023071289062 483.9506225585938 L 956.8023071289062 457.0023193359375 C 956.8023071289062 455.7252502441406 957.8409423828125 454.6862487792969 959.11767578125 454.6862487792969 L 978.3607788085938 454.6862487792969 L 978.3607788085938 446.7412719726562 L 948.8573608398438 446.7412719726562 M 948.338134765625 445.323974609375 L 978.8800659179688 445.323974609375 C 979.3762817382812 445.323974609375 979.7781372070312 445.7264404296875 979.7781372070312 446.2227783203125 L 979.7781372070312 455.2055053710938 C 979.7781372070312 455.7017517089844 979.3762817382812 456.1035766601562 978.8800659179688 456.1035766601562 L 959.11767578125 456.1035766601562 C 958.6213989257812 456.1035766601562 958.2196044921875 456.5060424804688 958.2196044921875 457.0023193359375 L 958.2196044921875 483.9506225585938 C 958.2196044921875 484.4468688964844 958.6213989257812 484.8493347167969 959.11767578125 484.8493347167969 L 968.1004638671875 484.8493347167969 C 968.5966796875 484.8493347167969 968.9991455078125 485.2511596679688 968.9991455078125 485.7474060058594 L 968.9991455078125 494.7301635742188 C 968.9991455078125 495.2264404296875 968.5966796875 495.62890625 968.1004638671875 495.62890625 L 959.11767578125 495.62890625 C 958.6213989257812 495.62890625 958.2196044921875 496.0307312011719 958.2196044921875 496.5269775390625 L 958.2196044921875 516.2893676757812 C 958.2196044921875 516.7855834960938 957.817138671875 517.1874389648438 957.3209228515625 517.1874389648438 L 952.7600708007812 517.1874389648438 L 951.9044799804688 512.1436767578125 L 951.0482177734375 517.1874389648438 L 948.338134765625 517.1874389648438 C 947.8418579101562 517.1874389648438 947.4400024414062 516.7855834960938 947.4400024414062 516.2893676757812 L 947.4400024414062 446.2227783203125 C 947.4400024414062 445.7264404296875 947.8418579101562 445.323974609375 948.338134765625 445.323974609375 Z" stroke="none" fill="#f3be5b"/></g><path d="M974.143,491.606l-9.695,9.293a.9.9,0,0,0,.9.9l9.695-9.294A.9.9,0,0,1,974.143,491.606Z" transform="translate(-953.668 -452.979)" fill="#fbdf62" opacity="0.4"/><path d="M998.463,441.372l9.695-9.294v8.983l-9.695,9.294Z" transform="translate(-966.125 -431.18)" fill="url(#bg)"/><path d="M981.456,503.734l9.695-9.294v8.983l-9.695,9.294Z" transform="translate(-959.897 -454.017)" fill="url(#ck)"/></g><g transform="translate(143.992)"><path d="M1005.334,536.333l9.695-9.294h2.695l-9.695,9.294Z" transform="translate(-1004.436 -465.955)" fill="url(#a)"/><path d="M1036.28,441.441a.9.9,0,0,0,.9-.9V431.56a.9.9,0,0,0-.9-.9h-16.169a.9.9,0,0,0-.9.9v8.983a.9.9,0,0,0,.9.9h2.695v50.3h-2.695a.9.9,0,0,0-.9.9v8.983a.9.9,0,0,0,.9.9h16.169a.9.9,0,0,0,.9-.9v-8.983a.9.9,0,0,0-.9-.9h-2.695v-50.3Z" transform="translate(-1009.518 -430.661)" fill="url(#a)"/><path d="M1005.334,536.333l9.695-9.294h2.695l-9.695,9.294Z" transform="translate(-1004.436 -465.955)" fill="url(#cn)"/><path d="M1036.289,447.669v50.3l-9.695,9.294v-50.3Z" transform="translate(-1012.222 -436.889)" fill="url(#co)"/><path d="M1032.264,441.372l9.695-9.294v8.983l-9.695,9.294Z" transform="translate(-1014.298 -431.18)" fill="url(#a)"/><path d="M1021.5,439.955l9.695-9.294h-16.169l-9.695,9.294Z" transform="translate(-1004.436 -430.661)" fill="url(#cq)"/><path d="M1040.541,430.661l-9.695,9.293.9.9,9.695-9.294A.9.9,0,0,0,1040.541,430.661Z" transform="translate(-1013.779 -430.661)" fill="#fbdf62"/><path d="M1040.541,527.039l-9.695,9.293.9.9,9.695-9.294A.9.9,0,0,0,1040.541,527.039Z" transform="translate(-1013.779 -465.955)" fill="#fbdf62" opacity="0.3"/><path d="M1014.542,430.661a.9.9,0,0,0-.635.263c-.162.163-9.722,9.137-9.787,9.4l.728-.372Z" transform="translate(-1003.991 -430.661)" fill="#f3be5b"/><path d="M1014.542,527.133a.9.9,0,0,0-.635.263c-.162.163-9.722,9.137-9.787,9.4l.728-.372Z" transform="translate(-1003.991 -465.99)" fill="#f3be5b"/><path d="M1032.264,537.75l9.695-9.294v8.983l-9.695,9.294Z" transform="translate(-1014.298 -466.474)" fill="url(#cr)"/><path d="M1026.594,536.333l9.695-9.294h2.695l-9.695,9.294Z" transform="translate(-1012.222 -465.955)" fill="url(#cs)"/><path d="M1031.792,552.593s9.562-9.162,9.724-9.321a.9.9,0,0,0,.27-.641l-9.695,9.293Z" transform="translate(-1014.125 -471.665)" fill="#fbdf62"/><path d="M1031.792,456.206s9.562-9.162,9.724-9.321a.9.9,0,0,0,.27-.641l-9.695,9.293Z" transform="translate(-1014.125 -436.367)" fill="#fbdf62"/><g transform="translate(-1003.917 -436.031)" fill="#fbdf62" stroke-miterlimit="10"><path d="M 1020.984436035156 516.478759765625 L 1017.391479492188 516.478759765625 L 1008.408752441406 516.478759765625 L 1004.815063476562 516.478759765625 C 1004.710632324219 516.478759765625 1004.625671386719 516.393798828125 1004.625671386719 516.2893676757812 L 1004.625671386719 507.3065490722656 C 1004.625671386719 507.2017822265625 1004.710632324219 507.1165161132812 1004.815063476562 507.1165161132812 L 1007.510009765625 507.1165161132812 L 1008.218688964844 507.1165161132812 L 1008.218688964844 506.4078674316406 L 1008.218688964844 456.1035766601562 L 1008.218688964844 455.3949279785156 L 1007.510009765625 455.3949279785156 L 1004.815063476562 455.3949279785156 C 1004.710632324219 455.3949279785156 1004.625671386719 455.3099365234375 1004.625671386719 455.2055053710938 L 1004.625671386719 446.2227478027344 C 1004.625671386719 446.1179504394531 1004.710632324219 446.0326538085938 1004.815063476562 446.0326538085938 L 1008.408752441406 446.0326538085938 L 1017.391479492188 446.0326538085938 L 1020.984436035156 446.0326538085938 C 1021.089233398438 446.0326538085938 1021.174499511719 446.1179504394531 1021.174499511719 446.2227478027344 L 1021.174499511719 455.2055053710938 C 1021.174499511719 455.3099365234375 1021.089233398438 455.3949279785156 1020.984436035156 455.3949279785156 L 1018.28955078125 455.3949279785156 L 1017.580871582031 455.3949279785156 L 1017.580871582031 456.1035766601562 L 1017.580871582031 506.4078674316406 L 1017.580871582031 507.1165161132812 L 1018.28955078125 507.1165161132812 L 1020.984436035156 507.1165161132812 C 1021.089233398438 507.1165161132812 1021.174499511719 507.2017822265625 1021.174499511719 507.3065490722656 L 1021.174499511719 516.2893676757812 C 1021.174499511719 516.393798828125 1021.089233398438 516.478759765625 1020.984436035156 516.478759765625 Z" stroke="none"/><path d="M 1005.334350585938 446.7412719726562 L 1005.334350585938 454.6862487792969 L 1008.927307128906 454.6862487792969 L 1008.927307128906 507.8251953125 L 1005.334350585938 507.8251953125 L 1005.334350585938 515.7701416015625 L 1020.4658203125 515.7701416015625 L 1020.4658203125 507.8251953125 L 1016.872253417969 507.8251953125 L 1016.872253417969 454.6862487792969 L 1020.4658203125 454.6862487792969 L 1020.4658203125 446.7412719726562 L 1005.334350585938 446.7412719726562 M 1004.815063476562 445.323974609375 L 1020.984436035156 445.323974609375 C 1021.480712890625 445.323974609375 1021.883178710938 445.7264404296875 1021.883178710938 446.2227783203125 L 1021.883178710938 455.2055053710938 C 1021.883178710938 455.7017517089844 1021.480712890625 456.1035766601562 1020.984436035156 456.1035766601562 L 1018.28955078125 456.1035766601562 L 1018.28955078125 506.4078674316406 L 1020.984436035156 506.4078674316406 C 1021.480712890625 506.4078674316406 1021.883178710938 506.810302734375 1021.883178710938 507.3065490722656 L 1021.883178710938 516.2893676757812 C 1021.883178710938 516.7855834960938 1021.480712890625 517.1874389648438 1020.984436035156 517.1874389648438 L 1004.815063476562 517.1874389648438 C 1004.319458007812 517.1874389648438 1003.9169921875 516.7855834960938 1003.9169921875 516.2893676757812 L 1003.9169921875 507.3065490722656 C 1003.9169921875 506.810302734375 1004.319458007812 506.4078674316406 1004.815063476562 506.4078674316406 L 1007.510009765625 506.4078674316406 L 1007.510009765625 456.1035766601562 L 1004.815063476562 456.1035766601562 C 1004.319458007812 456.1035766601562 1003.9169921875 455.7017517089844 1003.9169921875 455.2055053710938 L 1003.9169921875 446.2227783203125 C 1003.9169921875 445.7264404296875 1004.319458007812 445.323974609375 1004.815063476562 445.323974609375 Z" stroke="none" fill="#f3be5b"/></g><path d="M1032.264,537.75l9.695-9.294v8.983l-9.695,9.294Z" transform="translate(-1014.298 -466.474)" fill="url(#ct)"/><path d="M1032.264,441.372l9.695-9.294v8.983l-9.695,9.294Z" transform="translate(-1014.298 -431.18)" fill="url(#bg)"/></g><g transform="translate(167.148 57.491)"><path d="M1075.711,521.37h-18.964a1,1,0,0,0-1,1v69.867a1,1,0,0,0,1,1h6.4l.848-5,.847,5h10.87c11.977,0,35.932-11.977,35.932-35.932S1091.681,521.37,1075.711,521.37Zm2.8,52.471h-5.1a1,1,0,0,1-1-1V541.76a1,1,0,0,1,1-1h5.1c7.351,0,16.54,5.513,16.54,16.54S1084.029,573.841,1078.516,573.841Z" transform="translate(-1046.054 -521.37)" fill="url(#a)"/><path d="M1072.85,566.629h-5.1a1,1,0,0,0-1,1v31.084a1,1,0,0,0,1,1h5.1c4.42,0,12.38-3.548,15.364-10.636a15.073,15.073,0,0,1-5.669,1.342h-5.1a1,1,0,0,1-1-1v-22.37A16.18,16.18,0,0,0,1072.85,566.629Z" transform="translate(-1050.084 -537.944)" fill="url(#a)"/><path d="M1072.85,566.629h-5.1a1,1,0,0,0-1,1v31.084a1,1,0,0,0,1,1h5.1c4.42,0,12.38-3.548,15.364-10.636a15.073,15.073,0,0,1-5.669,1.342h-5.1a1,1,0,0,1-1-1v-22.37A16.18,16.18,0,0,0,1072.85,566.629Z" transform="translate(-1050.084 -537.944)" fill="url(#cx)"/><path d="M1052.123,641.163l.848-5,9.694-9.294-.848,5Z" transform="translate(-1044.727 -560.006)" fill="url(#a)"/><path d="M1052.123,641.163l.848-5,9.694-9.294-.848,5Z" transform="translate(-1044.727 -560.006)" fill="url(#ad)"/><path d="M1066.751,562.834l9.695-9.294v31.084l-9.695,9.294Z" transform="translate(-1050.084 -533.151)" fill="url(#bg)"/><path d="M1070.686,521.37h-18.964a1,1,0,0,0-.994.952l-8.7,8.341h18.964c15.97,0,35.932,11.977,35.932,35.932,0,17.607-12.94,28.735-24.555,33.4l.008,0c13.89-5.524,34.241-18.744,34.241-42.7S1086.656,521.37,1070.686,521.37Z" transform="translate(-1041.029 -521.37)" fill="url(#bl)"/><path d="M1070.686,521.37h-18.964a1,1,0,0,0-.994.952l-8.7,8.341h18.964c15.97,0,35.932,11.977,35.932,35.932,0,17.607-12.94,28.735-24.555,33.4l.008,0c13.89-5.524,34.241-18.744,34.241-42.7S1086.656,521.37,1070.686,521.37Z" transform="translate(-1041.029 -521.37)" fill="url(#dc)"/><path d="M1077.444,603.579a1,1,0,0,1-1-1l-9.7,9.293h0a1,1,0,0,0,.751.963l.247.035,9.694-9.294Z" transform="translate(-1050.083 -551.11)" fill="url(#dd)"/><path d="M1077.444,603.579a1,1,0,0,1-1-1l-9.7,9.293h0a1,1,0,0,0,.751.963l.247.035,9.694-9.294Z" transform="translate(-1050.083 -551.11)" fill="#fbdf62" opacity="0.4"/><path d="M1051.276,521.37a1,1,0,0,0-.678.263c-.163.162-9.723,9.137-9.788,9.4l.771-.371Z" transform="translate(-1040.584 -521.37)" fill="#fbdf62"/><g transform="translate(-1040.453 -526.74)" fill="#fbdf62" stroke-miterlimit="10"><path d="M 1060.4150390625 607.187744140625 L 1050.143432617188 607.187744140625 L 1049.396240234375 602.7824096679688 L 1047.998901367188 602.7822875976562 L 1047.250854492188 607.187744140625 L 1041.45068359375 607.187744140625 C 1041.291259765625 607.187744140625 1041.16162109375 607.057861328125 1041.16162109375 606.898193359375 L 1041.16162109375 537.03125 C 1041.16162109375 536.87158203125 1041.291259765625 536.74169921875 1041.45068359375 536.74169921875 L 1060.4150390625 536.74169921875 C 1064.373413085938 536.74169921875 1068.560668945312 537.5034790039062 1072.524047851562 538.9447631835938 C 1076.75732421875 540.4841918945312 1080.58740234375 542.7078857421875 1083.908081054688 545.5540771484375 C 1087.517456054688 548.6478881835938 1090.353393554688 552.3465576171875 1092.337158203125 556.5473022460938 C 1094.527465820312 561.1854248046875 1095.638061523438 566.37255859375 1095.638061523438 571.9647216796875 C 1095.638061523438 577.4622802734375 1094.344482421875 582.6376953125 1091.79345703125 587.3472290039062 C 1089.559692382812 591.4710083007812 1086.409301757812 595.17626953125 1082.429443359375 598.3600463867188 C 1078.980224609375 601.1195068359375 1074.969116210938 603.4115600585938 1070.829833984375 604.9884033203125 C 1067.10693359375 606.4066772460938 1063.408203125 607.187744140625 1060.4150390625 607.187744140625 Z M 1058.118896484375 554.7159423828125 C 1057.177612304688 554.7159423828125 1056.411987304688 555.4816284179688 1056.411987304688 556.4227905273438 L 1056.411987304688 587.506591796875 C 1056.411987304688 588.4478149414062 1057.177612304688 589.2135620117188 1058.118896484375 589.2135620117188 L 1063.219482421875 589.2135620117188 C 1069.238891601562 589.2135620117188 1080.467651367188 583.2894897460938 1080.467651367188 571.9647216796875 C 1080.467651367188 560.0673828125 1070.381469726562 554.7159423828125 1063.219482421875 554.7159423828125 L 1058.118896484375 554.7159423828125 Z" stroke="none"/><path d="M 1041.870361328125 537.4503173828125 L 1041.870361328125 606.4791259765625 L 1046.65234375 606.4791259765625 L 1048.6982421875 594.4292602539062 L 1050.741943359375 606.4791259765625 L 1060.4150390625 606.4791259765625 C 1063.324096679688 606.4791259765625 1066.933227539062 605.7145385742188 1070.577514648438 604.326171875 C 1074.64892578125 602.775146484375 1078.59423828125 600.520751953125 1081.98681640625 597.8067016601562 C 1085.892211914062 594.682373046875 1088.98193359375 591.0497436523438 1091.17041015625 587.0097045898438 C 1093.664672851562 582.4049072265625 1094.929321289062 577.3430786132812 1094.929321289062 571.9647216796875 C 1094.929321289062 566.47802734375 1093.841674804688 561.3927001953125 1091.696411132812 556.8499145507812 C 1089.755493164062 552.739990234375 1086.97998046875 549.1205444335938 1083.446899414062 546.0921630859375 C 1080.191162109375 543.3015747070312 1076.434692382812 541.1209106445312 1072.281860351562 539.6107788085938 C 1068.395263671875 538.1973876953125 1064.291748046875 537.4503173828125 1060.4150390625 537.4503173828125 L 1041.870361328125 537.4503173828125 M 1063.219482421875 589.9221801757812 L 1058.118896484375 589.9221801757812 C 1056.786865234375 589.9221801757812 1055.703247070312 588.8385620117188 1055.703247070312 587.506591796875 L 1055.703247070312 556.4227905273438 C 1055.703247070312 555.0908813476562 1056.786865234375 554.00732421875 1058.118896484375 554.00732421875 L 1063.219482421875 554.00732421875 C 1070.67578125 554.00732421875 1081.176391601562 559.57861328125 1081.176391601562 571.9647216796875 C 1081.176391601562 578.6795043945312 1077.514282226562 583.018798828125 1074.442260742188 585.4765625 C 1071.066650390625 588.1771850585938 1066.661376953125 589.9221801757812 1063.219482421875 589.9221801757812 M 1041.45068359375 536.0330200195312 L 1060.4150390625 536.0330200195312 C 1076.384033203125 536.0330200195312 1096.3466796875 548.010498046875 1096.3466796875 571.9647216796875 C 1096.3466796875 595.9190063476562 1072.391845703125 607.8964233398438 1060.4150390625 607.8964233398438 L 1049.544799804688 607.8964233398438 L 1048.697509765625 602.90087890625 L 1047.849365234375 607.8964233398438 L 1041.45068359375 607.8964233398438 C 1040.89990234375 607.8964233398438 1040.453002929688 607.4495849609375 1040.453002929688 606.898193359375 L 1040.453002929688 537.03125 C 1040.453002929688 536.4798583984375 1040.89990234375 536.0330200195312 1041.45068359375 536.0330200195312 Z M 1063.219482421875 588.5048828125 C 1068.73291015625 588.5048828125 1079.759033203125 582.9915161132812 1079.759033203125 571.9647216796875 C 1079.759033203125 560.93798828125 1070.5703125 555.4246215820312 1063.219482421875 555.4246215820312 L 1058.118896484375 555.4246215820312 C 1057.5673828125 555.4246215820312 1057.12060546875 555.8713989257812 1057.12060546875 556.4227905273438 L 1057.12060546875 587.506591796875 C 1057.12060546875 588.0580444335938 1057.5673828125 588.5048828125 1058.118896484375 588.5048828125 L 1063.219482421875 588.5048828125 Z" stroke="none" fill="#f3be5b"/></g></g></g></g></svg>