<svg width="250" height="250" viewBox="0 0 250 250" fill="none" xmlns="http://www.w3.org/2000/svg">
<path d="M125 26C83.6424 26 50 59.6424 50 101C50 142.358 83.6424 176 125 176C166.358 176 200 142.358 200 101C200 59.6424 166.358 26 125 26ZM164.13 104.261H128.261V140.13H121.739V104.261H85.8696V97.7391H121.739V61.8696H128.261V97.7391H164.13V104.261Z" fill="white"/>
<path d="M14.392 218H11.5966L17.8778 200.545H20.9205L27.2017 218H24.4062L19.4716 203.716H19.3352L14.392 218ZM14.8608 211.165H23.929V213.381H14.8608V211.165ZM34.2074 218.256C33.1506 218.256 32.2074 217.986 31.3778 217.446C30.554 216.901 29.9063 216.125 29.4347 215.119C28.9688 214.108 28.7358 212.895 28.7358 211.48C28.7358 210.065 28.9716 208.855 29.4432 207.849C29.9205 206.844 30.5739 206.074 31.4034 205.54C32.233 205.006 33.1733 204.739 34.2244 204.739C35.0369 204.739 35.6903 204.875 36.1847 205.148C36.6847 205.415 37.071 205.727 37.3438 206.085C37.6222 206.443 37.8381 206.759 37.9915 207.031H38.1449V200.545H40.6932V218H38.2045V215.963H37.9915C37.8381 216.241 37.6165 216.56 37.3267 216.918C37.0426 217.276 36.6506 217.588 36.1506 217.855C35.6506 218.122 35.0028 218.256 34.2074 218.256ZM34.7699 216.082C35.5028 216.082 36.1222 215.889 36.6278 215.503C37.1392 215.111 37.5256 214.568 37.7869 213.875C38.054 213.182 38.1875 212.375 38.1875 211.455C38.1875 210.545 38.0568 209.75 37.7955 209.068C37.5341 208.386 37.1506 207.855 36.6449 207.474C36.1392 207.094 35.5142 206.903 34.7699 206.903C34.0028 206.903 33.3636 207.102 32.8523 207.5C32.3409 207.898 31.9545 208.44 31.6932 209.128C31.4375 209.815 31.3097 210.591 31.3097 211.455C31.3097 212.33 31.4403 213.116 31.7017 213.815C31.9631 214.514 32.3494 215.068 32.8608 215.477C33.3778 215.881 34.0142 216.082 34.7699 216.082ZM49.2308 218.256C48.174 218.256 47.2308 217.986 46.4013 217.446C45.5774 216.901 44.9297 216.125 44.4581 215.119C43.9922 214.108 43.7592 212.895 43.7592 211.48C43.7592 210.065 43.995 208.855 44.4666 207.849C44.9439 206.844 45.5973 206.074 46.4268 205.54C47.2564 205.006 48.1967 204.739 49.2479 204.739C50.0604 204.739 50.7138 204.875 51.2081 205.148C51.7081 205.415 52.0945 205.727 52.3672 206.085C52.6456 206.443 52.8615 206.759 53.0149 207.031H53.1683V200.545H55.7166V218H53.228V215.963H53.0149C52.8615 216.241 52.6399 216.56 52.3501 216.918C52.0661 217.276 51.674 217.588 51.174 217.855C50.674 218.122 50.0263 218.256 49.2308 218.256ZM49.7933 216.082C50.5263 216.082 51.1456 215.889 51.6513 215.503C52.1626 215.111 52.549 214.568 52.8104 213.875C53.0774 213.182 53.2109 212.375 53.2109 211.455C53.2109 210.545 53.0803 209.75 52.8189 209.068C52.5575 208.386 52.174 207.855 51.6683 207.474C51.1626 207.094 50.5376 206.903 49.7933 206.903C49.0263 206.903 48.3871 207.102 47.8757 207.5C47.3643 207.898 46.978 208.44 46.7166 209.128C46.4609 209.815 46.3331 210.591 46.3331 211.455C46.3331 212.33 46.4638 213.116 46.7251 213.815C46.9865 214.514 47.3729 215.068 47.8842 215.477C48.4013 215.881 49.0376 216.082 49.7933 216.082ZM64.5632 200.545H67.5547L72.1143 208.48H72.3018L76.8615 200.545H79.853L73.5206 211.148V218H70.8956V211.148L64.5632 200.545ZM85.4929 218.264C84.2656 218.264 83.1946 217.983 82.2798 217.42C81.3651 216.858 80.6548 216.071 80.1491 215.06C79.6435 214.048 79.3906 212.866 79.3906 211.514C79.3906 210.156 79.6435 208.969 80.1491 207.952C80.6548 206.935 81.3651 206.145 82.2798 205.582C83.1946 205.02 84.2656 204.739 85.4929 204.739C86.7202 204.739 87.7912 205.02 88.706 205.582C89.6207 206.145 90.331 206.935 90.8366 207.952C91.3423 208.969 91.5952 210.156 91.5952 211.514C91.5952 212.866 91.3423 214.048 90.8366 215.06C90.331 216.071 89.6207 216.858 88.706 217.42C87.7912 217.983 86.7202 218.264 85.4929 218.264ZM85.5014 216.125C86.2969 216.125 86.956 215.915 87.4787 215.494C88.0014 215.074 88.3878 214.514 88.6378 213.815C88.8935 213.116 89.0213 212.347 89.0213 211.506C89.0213 210.67 88.8935 209.903 88.6378 209.205C88.3878 208.5 88.0014 207.935 87.4787 207.509C86.956 207.082 86.2969 206.869 85.5014 206.869C84.7003 206.869 84.0355 207.082 83.5071 207.509C82.9844 207.935 82.5952 208.5 82.3395 209.205C82.0895 209.903 81.9645 210.67 81.9645 211.506C81.9645 212.347 82.0895 213.116 82.3395 213.815C82.5952 214.514 82.9844 215.074 83.5071 215.494C84.0355 215.915 84.7003 216.125 85.5014 216.125ZM102.732 212.571V204.909H105.289V218H102.783V215.733H102.647C102.346 216.432 101.863 217.014 101.198 217.48C100.539 217.94 99.718 218.17 98.7351 218.17C97.8942 218.17 97.1499 217.986 96.5021 217.616C95.8601 217.241 95.3544 216.688 94.9851 215.955C94.6214 215.222 94.4396 214.315 94.4396 213.236V204.909H96.9879V212.929C96.9879 213.821 97.2351 214.531 97.7294 215.06C98.2237 215.588 98.8658 215.852 99.6555 215.852C100.133 215.852 100.607 215.733 101.079 215.494C101.556 215.256 101.951 214.895 102.263 214.412C102.582 213.929 102.738 213.315 102.732 212.571ZM108.713 218V204.909H111.176V206.989H111.312C111.551 206.284 111.972 205.73 112.574 205.327C113.182 204.918 113.869 204.713 114.636 204.713C114.795 204.713 114.983 204.719 115.199 204.73C115.42 204.741 115.594 204.756 115.719 204.773V207.21C115.616 207.182 115.435 207.151 115.173 207.116C114.912 207.077 114.651 207.057 114.389 207.057C113.787 207.057 113.25 207.185 112.778 207.44C112.313 207.69 111.943 208.04 111.67 208.489C111.398 208.932 111.261 209.437 111.261 210.006V218H108.713ZM138.977 206.222H136.318C136.216 205.653 136.026 205.153 135.747 204.722C135.469 204.29 135.128 203.923 134.724 203.622C134.321 203.321 133.869 203.094 133.369 202.94C132.875 202.787 132.349 202.71 131.793 202.71C130.787 202.71 129.886 202.963 129.091 203.469C128.301 203.974 127.676 204.716 127.216 205.693C126.761 206.67 126.534 207.864 126.534 209.273C126.534 210.693 126.761 211.892 127.216 212.869C127.676 213.847 128.304 214.585 129.099 215.085C129.895 215.585 130.79 215.835 131.784 215.835C132.335 215.835 132.858 215.761 133.352 215.614C133.852 215.46 134.304 215.236 134.707 214.94C135.111 214.645 135.452 214.284 135.73 213.858C136.014 213.426 136.21 212.932 136.318 212.375L138.977 212.384C138.835 213.241 138.56 214.031 138.151 214.753C137.747 215.469 137.227 216.088 136.591 216.611C135.96 217.128 135.239 217.528 134.426 217.812C133.614 218.097 132.727 218.239 131.767 218.239C130.256 218.239 128.909 217.881 127.727 217.165C126.545 216.443 125.614 215.412 124.932 214.071C124.256 212.73 123.918 211.131 123.918 209.273C123.918 207.409 124.259 205.81 124.94 204.474C125.622 203.134 126.554 202.105 127.736 201.389C128.918 200.668 130.261 200.307 131.767 200.307C132.693 200.307 133.557 200.44 134.358 200.707C135.165 200.969 135.889 201.355 136.531 201.866C137.173 202.372 137.705 202.991 138.125 203.724C138.545 204.452 138.83 205.284 138.977 206.222ZM147.438 218.264C146.211 218.264 145.14 217.983 144.225 217.42C143.31 216.858 142.6 216.071 142.094 215.06C141.589 214.048 141.336 212.866 141.336 211.514C141.336 210.156 141.589 208.969 142.094 207.952C142.6 206.935 143.31 206.145 144.225 205.582C145.14 205.02 146.211 204.739 147.438 204.739C148.665 204.739 149.737 205.02 150.651 205.582C151.566 206.145 152.276 206.935 152.782 207.952C153.288 208.969 153.54 210.156 153.54 211.514C153.54 212.866 153.288 214.048 152.782 215.06C152.276 216.071 151.566 216.858 150.651 217.42C149.737 217.983 148.665 218.264 147.438 218.264ZM147.447 216.125C148.242 216.125 148.901 215.915 149.424 215.494C149.947 215.074 150.333 214.514 150.583 213.815C150.839 213.116 150.967 212.347 150.967 211.506C150.967 210.67 150.839 209.903 150.583 209.205C150.333 208.5 149.947 207.935 149.424 207.509C148.901 207.082 148.242 206.869 147.447 206.869C146.646 206.869 145.981 207.082 145.452 207.509C144.93 207.935 144.54 208.5 144.285 209.205C144.035 209.903 143.91 210.67 143.91 211.506C143.91 212.347 144.035 213.116 144.285 213.815C144.54 214.514 144.93 215.074 145.452 215.494C145.981 215.915 146.646 216.125 147.447 216.125ZM158.933 200.545V218H156.385V200.545H158.933ZM164.91 200.545V218H162.362V200.545H164.91ZM173.98 218.264C172.69 218.264 171.58 217.989 170.648 217.438C169.722 216.881 169.006 216.099 168.5 215.094C168 214.082 167.75 212.898 167.75 211.54C167.75 210.199 168 209.017 168.5 207.994C169.006 206.972 169.71 206.173 170.614 205.599C171.523 205.026 172.585 204.739 173.801 204.739C174.54 204.739 175.256 204.861 175.949 205.105C176.642 205.349 177.264 205.733 177.815 206.256C178.366 206.778 178.801 207.457 179.119 208.293C179.438 209.122 179.597 210.131 179.597 211.318V212.222H169.19V210.312H177.099C177.099 209.642 176.963 209.048 176.69 208.531C176.418 208.009 176.034 207.597 175.54 207.295C175.051 206.994 174.477 206.844 173.818 206.844C173.102 206.844 172.477 207.02 171.943 207.372C171.415 207.719 171.006 208.173 170.716 208.736C170.432 209.293 170.29 209.898 170.29 210.551V212.043C170.29 212.918 170.443 213.662 170.75 214.276C171.062 214.889 171.497 215.358 172.054 215.682C172.611 216 173.261 216.159 174.006 216.159C174.489 216.159 174.929 216.091 175.327 215.955C175.724 215.812 176.068 215.602 176.358 215.324C176.648 215.045 176.869 214.702 177.023 214.293L179.435 214.727C179.241 215.437 178.895 216.06 178.395 216.594C177.901 217.122 177.278 217.534 176.528 217.83C175.784 218.119 174.935 218.264 173.98 218.264ZM187.938 218.264C186.671 218.264 185.58 217.977 184.665 217.403C183.756 216.824 183.058 216.026 182.569 215.009C182.08 213.991 181.836 212.827 181.836 211.514C181.836 210.185 182.086 209.011 182.586 207.994C183.086 206.972 183.79 206.173 184.7 205.599C185.609 205.026 186.68 204.739 187.913 204.739C188.907 204.739 189.793 204.923 190.572 205.293C191.35 205.656 191.978 206.168 192.455 206.827C192.938 207.486 193.225 208.256 193.316 209.136H190.836C190.7 208.523 190.387 207.994 189.898 207.551C189.415 207.108 188.768 206.886 187.955 206.886C187.245 206.886 186.623 207.074 186.089 207.449C185.56 207.818 185.148 208.347 184.853 209.034C184.558 209.716 184.41 210.523 184.41 211.455C184.41 212.409 184.555 213.233 184.844 213.926C185.134 214.619 185.543 215.156 186.072 215.537C186.606 215.918 187.234 216.108 187.955 216.108C188.438 216.108 188.876 216.02 189.268 215.844C189.665 215.662 189.998 215.403 190.265 215.068C190.538 214.733 190.728 214.33 190.836 213.858H193.316C193.225 214.705 192.95 215.46 192.489 216.125C192.029 216.79 191.413 217.312 190.64 217.693C189.873 218.074 188.972 218.264 187.938 218.264ZM202.152 204.909V206.955H195.001V204.909H202.152ZM196.919 201.773H199.467V214.156C199.467 214.651 199.541 215.023 199.689 215.273C199.837 215.517 200.027 215.685 200.26 215.776C200.499 215.861 200.757 215.903 201.036 215.903C201.24 215.903 201.419 215.889 201.572 215.861C201.726 215.832 201.845 215.81 201.93 215.793L202.391 217.898C202.243 217.955 202.033 218.011 201.76 218.068C201.487 218.131 201.146 218.165 200.737 218.17C200.067 218.182 199.442 218.062 198.862 217.812C198.283 217.562 197.814 217.176 197.456 216.653C197.098 216.131 196.919 215.474 196.919 214.685V201.773ZM204.971 218V204.909H207.519V218H204.971ZM206.258 202.889C205.815 202.889 205.434 202.741 205.116 202.446C204.803 202.145 204.647 201.787 204.647 201.372C204.647 200.952 204.803 200.594 205.116 200.298C205.434 199.997 205.815 199.847 206.258 199.847C206.701 199.847 207.079 199.997 207.391 200.298C207.71 200.594 207.869 200.952 207.869 201.372C207.869 201.787 207.71 202.145 207.391 202.446C207.079 202.741 206.701 202.889 206.258 202.889ZM216.462 218.264C215.234 218.264 214.163 217.983 213.249 217.42C212.334 216.858 211.624 216.071 211.118 215.06C210.612 214.048 210.359 212.866 210.359 211.514C210.359 210.156 210.612 208.969 211.118 207.952C211.624 206.935 212.334 206.145 213.249 205.582C214.163 205.02 215.234 204.739 216.462 204.739C217.689 204.739 218.76 205.02 219.675 205.582C220.589 206.145 221.3 206.935 221.805 207.952C222.311 208.969 222.564 210.156 222.564 211.514C222.564 212.866 222.311 214.048 221.805 215.06C221.3 216.071 220.589 216.858 219.675 217.42C218.76 217.983 217.689 218.264 216.462 218.264ZM216.47 216.125C217.266 216.125 217.925 215.915 218.447 215.494C218.97 215.074 219.357 214.514 219.607 213.815C219.862 213.116 219.99 212.347 219.99 211.506C219.99 210.67 219.862 209.903 219.607 209.205C219.357 208.5 218.97 207.935 218.447 207.509C217.925 207.082 217.266 206.869 216.47 206.869C215.669 206.869 215.004 207.082 214.476 207.509C213.953 207.935 213.564 208.5 213.308 209.205C213.058 209.903 212.933 210.67 212.933 211.506C212.933 212.347 213.058 213.116 213.308 213.815C213.564 214.514 213.953 215.074 214.476 215.494C215.004 215.915 215.669 216.125 216.47 216.125ZM227.957 210.227V218H225.408V204.909H227.854V207.04H228.016C228.317 206.347 228.789 205.79 229.431 205.369C230.079 204.949 230.894 204.739 231.877 204.739C232.769 204.739 233.55 204.926 234.221 205.301C234.891 205.67 235.411 206.222 235.781 206.955C236.15 207.687 236.335 208.594 236.335 209.673V218H233.786V209.98C233.786 209.031 233.539 208.29 233.045 207.756C232.55 207.216 231.871 206.946 231.008 206.946C230.417 206.946 229.891 207.074 229.431 207.33C228.977 207.585 228.616 207.96 228.349 208.455C228.087 208.943 227.957 209.534 227.957 210.227Z" fill="white"/>
</svg>
