<?xml version="1.0" encoding="UTF-8"?>
<!DOCTYPE svg PUBLIC "-//W3C//DTD SVG 1.1//EN" "http://www.w3.org/Graphics/SVG/1.1/DTD/svg11.dtd">
<!-- Creator: CorelDRAW 2021.5 -->
<svg xmlns="http://www.w3.org/2000/svg" xml:space="preserve" width="11in" height="8.5in" version="1.1" style="shape-rendering:geometricPrecision; text-rendering:geometricPrecision; image-rendering:optimizeQuality; fill-rule:evenodd; clip-rule:evenodd"
viewBox="0 0 11000 8500"
 xmlns:xlink="http://www.w3.org/1999/xlink"
 xmlns:xodm="http://www.corel.com/coreldraw/odm/2003">
 <defs>
  <style type="text/css">
   <![CDATA[
    .fil0 {fill:url(#id0)}
   ]]>
  </style>
  <linearGradient id="id0" gradientUnits="userSpaceOnUse" x1="4010.47" y1="3995.61" x2="4028.8" y2="4745.85">
   <stop offset="0" style="stop-opacity:1; stop-color:#EF4454"/>
   <stop offset="1" style="stop-opacity:1; stop-color:#B93437"/>
  </linearGradient>
 </defs>
 <g id="Layer_x0020_1">
  <metadata id="CorelCorpID_0Corel-Layer"/>
  <path class="fil0" d="M2392.83 4743.81l186.65 0 0 -184.74 0 -35.74 0 -60.56 0 -120.56 0 -62.26 0 -95.25 124.68 0 0 95.25 0 62.26 0 120.56 0 60.56 0 35.74 0 184.74 184.86 0 0 -184.74 0 -35.74 0 -60.56 0 -120.56 0 -62.26 0 -95.25 125.97 0 0 95.25 0 62.26 0 120.56 0 60.56 0 35.74 0 184.74 186.23 0 0 -184.74 0 -35.74 0 -60.56 0 -120.56 0 -62.26 0 -95.25 0 -5.36 -66 -182.61 -120.23 0 -125.97 0 -184.86 0 -124.68 0 -186.65 0 -68.49 0 67.99 187.98 0.5 0 0 95.25 0 62.26 0 120.56 0 60.56 0 35.74 0 184.74zm3828.01 -471.29c52.53,0 95.09,42.6 95.09,95.09 0,52.53 -42.56,95.13 -95.09,95.13 -52.49,0 -95.01,-42.6 -95.01,-95.13 0,-52.49 42.52,-95.09 95.01,-95.09zm-293 471.29l588.7 0 115.04 -112.42 0 -81.75 0 -29.59 0 -61.51 0 -122.85 0 -65.62 0 -93.63 0 -80.09 -106.56 -104.15 -605.61 0 -102.74 100.41 0 83.83 0 93.63 0 65.62 0 122.85 0 61.51 0 29.59 0 85.49 111.17 108.68zm793.88 0l193.75 0 0 -194.17 0 -29.59 432.97 0 187.69 0 0 -61.51 0 -122.85 0 -65.62 0 -93.63 0 -184.24 -187.69 0 -432.97 0 -193.75 0 -90.14 0 0 1.2 90.14 88.07 0 94.96 0 93.63 0 65.62 0 122.85 0 61.51 0 29.59 0 194.17zm846.99 0l767.99 0 0 -194.17 0 -29.59 0 -61.51 0 -122.85 0 -65.62 -186.23 0 -326.91 0 0 -93.63 326.91 0 186.23 0 0.96 0 63.34 -184.24 -64.3 0 -186.23 0 -326.91 0 -187.06 0 0 184.24 0 93.63 0 65.62 0 122.85 187.06 0 326.91 0 0 61.51 0 29.59 -326.91 0 -187.06 0 -1.08 0 -66.7 194.17zm-1510.46 -194.17c-10.18,-9.06 -19.53,-18.91 -28.05,-29.59 -14.84,-18.41 -26.97,-39.15 -35.95,-61.51 -11.3,-28.09 -17.5,-58.77 -17.5,-90.93 0,-10.81 0.67,-21.41 2.04,-31.92 3.04,-22.98 9.27,-45.01 18.25,-65.62 16.08,-36.82 40.98,-68.91 72.02,-93.63 41.69,-33.17 94.42,-52.91 151.78,-52.91 57.39,0 110.18,19.74 151.86,52.91 31.04,24.73 55.9,56.81 72.02,93.63 8.98,20.61 15.17,42.64 18.2,65.62 1.37,10.52 2.08,21.11 2.08,31.92 0,32.17 -6.23,62.84 -17.5,90.93 -8.98,22.36 -21.15,43.1 -35.95,61.51 -8.52,10.68 -17.91,20.53 -28.06,29.59 -43.18,38.61 -100.16,62.09 -162.67,62.09 -62.46,0 -119.44,-23.48 -162.58,-62.09zm857.22 -279.57l0 -93.63 432.97 0 0 93.63 0 65.62 -432.97 0 0 -65.62zm-3612.56 473.74l187.14 0 545.85 0 81.5 0 -66.79 -184.74 -14.71 0 -545.85 0 0 -35.74 0 -60.56 545.85 0 0 -120.56 0 -62.26 -545.85 0 0 -95.25 545.85 0 338.01 0 0 95.25 0 62.26 0 120.56 0 60.56 0 35.74 0 184.74 188.22 0 0 -184.74 0 -35.74 0 -60.56 0 -120.56 0 -62.26 0 -95.25 255.51 0 68.04 -187.98 -323.55 0 -188.22 0 -338.01 0 -545.85 0 -187.14 0 -66.04 0 66.04 187.98 0 95.25 0 62.26 0 120.56 0 60.56 0 35.74 0 184.74zm1603.22 0l188.22 0 0 -184.74 0 -35.74 435.96 0 0 35.74 0 184.74 183.94 0 0 -184.74 0 -35.74 0 -60.56 0 -120.56 0 -62.26 0 -95.25 0 -33.17 -55.98 -154.81 -127.96 0 -435.96 0 -119.9 0 -67.99 187.98 -0.33 0.91 0 94.34 0 62.26 0 120.56 0 60.56 0 35.74 0 184.74zm624.19 -401.59l-435.96 0 0 -62.26 0 -95.25 435.96 0 0 95.25 0 62.26z"/>
 </g>
</svg>
